<?xml version="1.0" encoding="utf-8"?>
<!-- Generator: Adobe Illustrator 27.0.0, SVG Export Plug-In . SVG Version: 6.00 Build 0)  -->
<svg version="1.1" id="Layer_1" xmlns="http://www.w3.org/2000/svg" xmlns:xlink="http://www.w3.org/1999/xlink" x="0px" y="0px"
	 viewBox="0 0 70 70" style="enable-background:new 0 0 70 70;" xml:space="preserve">
<style type="text/css">
	.st0{fill:#999999;}
	.st1{fill:#636363;}
	.st2{fill:#191919;}
	.st3{fill:#455863;}
	.st4{fill:#516C76;}
	.st5{fill:#E4E7ED;}
	.st6{fill:#CED4DD;}
	.st7{fill:#E94F4D;}
	.st8{fill:#FFFFFF;}
	.st9{fill:#FCEAD6;}
</style>
<g>
	<g>
		<path class="st0" d="M49.82,45c-9.96,0-13.75-10.36-13.75-12.17c0-1.09-0.91-1.19-1.09-1.2c-0.14,0.01-1.04,0.11-1.04,1.2
			c0,1.81-3.79,12.17-13.75,12.17c-4.25,0-9.56-2.04-10.77-11.75c-0.02-0.17-0.04-0.29-0.05-0.36c-0.12-0.6-0.81-0.75-0.84-0.76
			c-0.23-0.05-0.4-0.25-0.4-0.49v-3.8c0-0.19,0.11-0.36,0.27-0.45c8.01-4.09,19.46-2.05,22.67-0.54c2.55,1.2,3.83,1.01,3.85,1.01
			c0.06-0.01,0.12-0.01,0.18,0c0,0,1.29,0.19,3.84-1.01c3.21-1.51,14.66-3.56,22.67,0.54c0.17,0.09,0.27,0.26,0.27,0.45v3.8
			c0,0.24-0.17,0.44-0.4,0.49c-0.03,0.01-0.71,0.16-0.83,0.76c-0.01,0.07-0.03,0.19-0.05,0.37C59.38,42.97,54.07,45,49.82,45z
			 M34.98,30.64c0.75,0.03,2.08,0.52,2.08,2.2c0,1.66,3.52,11.17,12.75,11.17c3.84,0,8.66-1.89,9.78-10.87
			c0.03-0.21,0.04-0.36,0.06-0.44c0.17-0.83,0.79-1.23,1.22-1.41v-3.13c-7.59-3.7-18.57-1.77-21.52-0.39
			c-2.54,1.19-3.97,1.15-4.36,1.1c-0.38,0.04-1.81,0.09-4.36-1.1c-2.94-1.38-13.93-3.31-21.52,0.39v3.13
			c0.42,0.18,1.05,0.58,1.22,1.41c0.02,0.08,0.04,0.23,0.06,0.44C11.52,42.12,16.34,44,20.18,44c9.24,0,12.75-9.51,12.75-11.17
			C32.93,31.16,34.27,30.66,34.98,30.64z"/>
	</g>
	<g>
		<path class="st0" d="M49.82,43.21c-8.81,0-11.88-9.3-11.95-10.36c0-1.63,0.48-3.72,1.83-4.35c1.44-0.68,5.76-1.68,10.48-1.68
			c3.26,0,6.19,0.46,8.69,1.36c0.73,0.26,1.21,0.97,1.21,1.77c0,0.49-0.19,0.95-0.53,1.3c-0.35,0.36-0.58,0.8-0.67,1.3
			c-0.02,0.09-0.04,0.26-0.07,0.5C57.96,39.78,54.94,43.21,49.82,43.21z M50.17,27.81c-4.56,0-8.69,0.94-10.05,1.58
			c-0.82,0.39-1.25,2.01-1.26,3.42c0.06,0.93,2.88,9.39,10.96,9.39c4.53,0,7.22-3.13,7.99-9.29c0.03-0.27,0.06-0.46,0.08-0.57
			c0.14-0.69,0.45-1.29,0.93-1.79c0.16-0.17,0.25-0.39,0.25-0.61c0-0.38-0.22-0.71-0.55-0.83C56.16,28.26,53.27,27.81,50.17,27.81z
			 M20.18,43.21c-5.12,0-8.14-3.42-8.98-10.17c-0.03-0.23-0.05-0.4-0.07-0.49c-0.1-0.5-0.33-0.94-0.67-1.3
			c-0.34-0.35-0.53-0.82-0.53-1.3c0-0.79,0.49-1.5,1.21-1.77c2.5-0.9,5.43-1.36,8.69-1.36c4.71,0,9.04,1,10.48,1.68
			c1.35,0.63,1.83,2.74,1.83,4.34C32.06,33.92,28.99,43.21,20.18,43.21z M19.83,27.81c-3.1,0-5.99,0.45-8.35,1.3
			c-0.33,0.12-0.55,0.45-0.55,0.83c0,0.23,0.09,0.44,0.25,0.61c0.48,0.5,0.79,1.11,0.93,1.79c0.02,0.1,0.05,0.3,0.08,0.57
			c0.77,6.16,3.46,9.29,7.99,9.29c8.08,0,10.89-8.44,10.96-9.4c0-1.38-0.43-3.02-1.26-3.41C28.52,28.76,24.39,27.81,19.83,27.81z"/>
	</g>
</g>
<g>
	<g>
		<path class="st0" d="M401.92-200.57c-0.11,0-0.22-0.04-0.31-0.1l-7.97-6.18c-0.16-0.12-0.23-0.33-0.18-0.52l0.93-3.54l-2.59-2.59
			c-0.16-0.16-0.19-0.4-0.08-0.6l2.8-5.06l0.88,0.48l-2.61,4.73l2.53,2.53c0.13,0.13,0.18,0.31,0.13,0.48l-0.92,3.5l7.4,5.74
			l7.4-5.74l-0.92-3.5c-0.05-0.17,0-0.36,0.13-0.48l2.53-2.53l-2.61-4.73l0.88-0.48l2.8,5.06c0.11,0.2,0.07,0.44-0.08,0.6
			l-2.59,2.59l0.94,3.54c0.05,0.19-0.02,0.4-0.18,0.52l-7.97,6.18C402.13-200.61,402.03-200.57,401.92-200.57z"/>
	</g>
	<g>
		<g>
			<path class="st0" d="M399.47-214.52c-0.12,0-0.24-0.04-0.33-0.12l-4.51-3.9c-0.14-0.12-0.2-0.31-0.16-0.49l0.72-3.23
				c0.04-0.16,0.15-0.29,0.3-0.35c0.15-0.06,0.32-0.05,0.46,0.04c1.19,0.77,4.58,2.76,5.97,2.76c0.18,0,0.34,0.09,0.43,0.25
				c0.09,0.15,0.09,0.34,0,0.5l-2.45,4.29c-0.07,0.13-0.2,0.22-0.35,0.25C399.53-214.53,399.5-214.52,399.47-214.52z M395.51-219.11
				l3.83,3.31l1.78-3.13c-1.64-0.39-3.98-1.74-5.11-2.43L395.51-219.11z"/>
		</g>
	</g>
	<g>
		<g>
			<path class="st0" d="M404.37-214.52c-0.03,0-0.06,0-0.08-0.01c-0.15-0.03-0.28-0.12-0.35-0.25l-2.45-4.29
				c-0.09-0.16-0.09-0.34,0-0.5c0.09-0.15,0.25-0.25,0.43-0.25c1.39,0,4.78-1.99,5.97-2.76c0.14-0.09,0.31-0.1,0.46-0.04
				c0.15,0.06,0.26,0.19,0.3,0.35l0.72,3.23c0.04,0.18-0.02,0.37-0.16,0.49l-4.51,3.9C404.61-214.57,404.49-214.52,404.37-214.52z
				 M402.72-218.93l1.78,3.13l3.83-3.31l-0.5-2.25C406.71-220.67,404.36-219.32,402.72-218.93z"/>
		</g>
	</g>
	<g>
		<path class="st0" d="M408.15-221.66c-0.18,0-0.33-0.09-0.42-0.23c-0.19-0.11-1.22-0.52-5.81-0.52c-4.6,0-5.62,0.41-5.81,0.52
			c-0.09,0.14-0.25,0.23-0.42,0.23c-0.28,0-0.5-0.22-0.5-0.5c0-0.41,0-1.25,6.74-1.25c6.73,0,6.73,0.85,6.73,1.25
			C408.65-221.88,408.43-221.66,408.15-221.66z M396.18-222.15L396.18-222.15L396.18-222.15z M407.65-222.15L407.65-222.15
			L407.65-222.15z M407.65-222.15L407.65-222.15L407.65-222.15z M396.18-222.15L396.18-222.15L396.18-222.15z M396.18-222.15
			L396.18-222.15L396.18-222.15z M407.65-222.15L407.65-222.15L407.65-222.15z"/>
	</g>
	<g>
		<path class="st0" d="M404.61-208.16c-0.22,0-0.42-0.15-0.48-0.37l-1.64-6h-1.12l-1.66,6c-0.07,0.27-0.35,0.42-0.62,0.35
			c-0.27-0.07-0.42-0.35-0.35-0.62l1.76-6.36c0.06-0.22,0.26-0.37,0.48-0.37h1.88c0.23,0,0.42,0.15,0.48,0.37l1.74,6.36
			c0.07,0.27-0.08,0.54-0.35,0.61C404.7-208.17,404.65-208.16,404.61-208.16z"/>
	</g>
	<g>
		<path class="st0" d="M400.98-214.53c-0.1,0-0.2-0.03-0.29-0.1c-0.31-0.23-0.83-0.89-0.83-1.95c0-0.28,0.22-0.5,0.5-0.5
			s0.5,0.22,0.5,0.5c0,0.8,0.41,1.13,0.43,1.15c0.21,0.17,0.25,0.48,0.09,0.7C401.28-214.59,401.13-214.53,400.98-214.53z"/>
	</g>
	<g>
		<path class="st0" d="M402.86-214.52c-0.15,0-0.3-0.07-0.4-0.2c-0.16-0.22-0.12-0.53,0.1-0.69c0.03-0.02,0.43-0.37,0.43-1.15
			c0-0.28,0.22-0.5,0.5-0.5s0.5,0.22,0.5,0.5c0,1.06-0.52,1.72-0.83,1.95C403.06-214.56,402.96-214.52,402.86-214.52z"/>
	</g>
	<g>
		<path class="st0" d="M413.62-180.79h-11c-0.23,0-0.42-0.15-0.48-0.37l-0.22-0.83l-0.22,0.83c-0.06,0.22-0.26,0.37-0.48,0.37h-11
			c-0.13,0-0.26-0.05-0.36-0.15c-0.09-0.09-0.15-0.22-0.14-0.36l0.04-4.98h-5.28c-0.28,0-0.5-0.22-0.5-0.5v-18.83
			c0-3.42,0.97-6.59,2.79-9.18c3.67-5.22,8.08-4.67,8.27-4.65c0.14,0.02,0.26,0.09,0.34,0.2c1.37,1.9,5.19,12.73,6.54,16.62
			c1.35-3.89,5.19-14.72,6.55-16.62c0.08-0.11,0.2-0.18,0.34-0.2c0.18-0.02,4.59-0.57,8.27,4.65c1.83,2.58,2.79,5.76,2.79,9.18
			v18.83c0,0.28-0.22,0.5-0.5,0.5h-5.28l0.04,4.98c0,0.13-0.05,0.26-0.14,0.36C413.88-180.84,413.76-180.79,413.62-180.79z
			 M403.01-181.79h10.11l-0.13-14.37l0.08-11.07c0-0.27,0.23-0.5,0.5-0.5h0c0.28,0,0.5,0.22,0.5,0.5l0.05,19.95h4.74v-18.33
			c0-3.21-0.9-6.19-2.61-8.6c-2.9-4.12-6.22-4.3-7.1-4.25c-1.35,2.2-4.98,12.33-6.77,17.54c-0.07,0.2-0.26,0.34-0.47,0.34l0,0
			c-0.21,0-0.4-0.14-0.47-0.34c-1.78-5.21-5.41-15.35-6.76-17.54c-0.87-0.03-4.2,0.12-7.1,4.25c-1.71,2.42-2.61,5.39-2.61,8.6v18.33
			h4.79l0.08-8.89l-0.08-11.05l1-0.01l0.08,11.06l-0.13,14.37h10.11l0.6-2.28c0.06-0.22,0.26-0.37,0.48-0.37h0
			c0.23,0,0.42,0.15,0.48,0.37L403.01-181.79z"/>
	</g>
	<g>
		<path class="st0" d="M401.92-186.61c-0.28,0-0.5-0.22-0.5-0.5l0-11.26c0-0.28,0.22-0.5,0.5-0.5s0.5,0.22,0.5,0.5l0,11.26
			C402.42-186.84,402.2-186.61,401.92-186.61z"/>
	</g>
</g>
<g>
	<g>
		<path class="st0" d="M487-178.07c-4.84,0-13.89-1.04-13.89-3.55c0-9.65,3.23-14.2,5.59-17.51c0.89-1.25,1.66-2.33,1.99-3.38
			c0.34-1.07,0-2.8-0.74-3.77c-0.99-1.29-2.21-3.63-2.42-7.45c0-0.01,0-0.02,0-0.03c0-0.11,0.06-2.66,4.99-2.66
			c2.29,0,3.9,0.65,4.49,0.94c0.59-0.29,2.2-0.94,4.49-0.94c4.93,0,4.99,2.55,4.99,2.66c-0.21,3.85-1.44,6.19-2.43,7.48
			c-0.75,0.97-1.09,2.7-0.74,3.77c0.34,1.05,1.1,2.13,1.99,3.38c2.36,3.32,5.59,7.86,5.59,17.51
			C500.89-179.11,491.84-178.07,487-178.07z M478.52-213.77c0.2,3.55,1.32,5.7,2.22,6.87c0.95,1.24,1.35,3.3,0.9,4.69
			c-0.38,1.2-1.19,2.34-2.13,3.66c-2.28,3.21-5.4,7.6-5.4,16.93c0,0.96,6.02,2.55,12.89,2.55c6.86,0,12.89-1.59,12.89-2.55
			c0-9.33-3.12-13.73-5.4-16.93c-0.94-1.32-1.75-2.46-2.13-3.66c-0.44-1.39-0.05-3.45,0.9-4.69c0.9-1.18,2.02-3.33,2.22-6.9
			c-0.03-0.54-0.9-1.63-3.99-1.63c-2.61,0-4.22,0.92-4.24,0.93c-0.15,0.09-0.35,0.09-0.5,0c-0.02-0.01-1.65-0.93-4.24-0.93
			C479.45-215.43,478.57-214.35,478.52-213.77z"/>
	</g>
	<g>
		<path class="st0" d="M495.41-215.07l-0.95-0.31c0.18-0.56,0.52-2.17-0.06-2.98c-0.25-0.35-0.67-0.52-1.28-0.52
			c-0.36-0.01-3.47-0.13-4.39-1.74c-0.58-1.02-0.64-2.37-0.55-3.47h-2.37c0.09,1.1,0.03,2.44-0.55,3.47
			c-0.92,1.61-4.02,1.73-4.37,1.74c-0.62,0-1.04,0.17-1.29,0.52c-0.58,0.81-0.24,2.42-0.06,2.97l-0.95,0.31
			c-0.03-0.1-0.8-2.49,0.2-3.87c0.45-0.62,1.15-0.93,2.09-0.93c0.73-0.02,2.98-0.29,3.52-1.23c0.58-1.02,0.48-2.57,0.37-3.4
			c-0.02-0.14,0.02-0.29,0.12-0.4c0.09-0.11,0.23-0.17,0.38-0.17h3.48c0.14,0,0.28,0.06,0.38,0.17c0.1,0.11,0.14,0.25,0.12,0.4
			c-0.11,0.84-0.21,2.39,0.37,3.4c0.54,0.95,2.79,1.21,3.53,1.23l0,0c0.92,0,1.62,0.31,2.07,0.93
			C496.21-217.56,495.44-215.17,495.41-215.07z"/>
	</g>
</g>
<g>
	<g>
		<g>
			<path class="st1" d="M280.6-126.3c-2.78,1.3-4.14,1.05-4.14,1.05s-1.37,0.25-4.14-1.05c-2.78-1.3-14.25-3.55-22.23,0.53v3.8
				c0,0,1.04,0.21,1.23,1.15c0.19,0.94,0.7,11.71,10.33,11.71c9.63,0,13.25-10.03,13.25-11.67s1.57-1.7,1.57-1.7s1.57,0.06,1.57,1.7
				s3.63,11.67,13.25,11.67s10.14-10.76,10.33-11.71c0.19-0.94,1.23-1.15,1.23-1.15v-3.8C294.84-129.85,283.37-127.61,280.6-126.3z"
				/>
		</g>
		<g>
			<path class="st2" d="M291.28-108.61c-9.96,0-13.75-10.36-13.75-12.17c0-1.09-0.91-1.19-1.09-1.2c-0.14,0.01-1.04,0.11-1.04,1.2
				c0,1.81-3.79,12.17-13.75,12.17c-4.25,0-9.56-2.04-10.77-11.75c-0.02-0.17-0.04-0.29-0.05-0.36c-0.12-0.6-0.81-0.75-0.84-0.76
				c-0.23-0.05-0.4-0.25-0.4-0.49v-3.8c0-0.19,0.11-0.36,0.27-0.45c8.01-4.09,19.47-2.05,22.67-0.54c2.55,1.2,3.83,1.01,3.85,1.01
				c0.06-0.01,0.12-0.01,0.18,0c0,0,1.29,0.19,3.84-1.01c3.21-1.51,14.66-3.55,22.67,0.54c0.17,0.09,0.27,0.26,0.27,0.45v3.8
				c0,0.24-0.17,0.44-0.4,0.49c-0.03,0.01-0.72,0.16-0.83,0.76c-0.01,0.07-0.03,0.19-0.05,0.37
				C300.84-110.65,295.52-108.61,291.28-108.61z M276.44-122.98c0.75,0.03,2.08,0.52,2.08,2.2c0,1.66,3.52,11.17,12.75,11.17
				c3.84,0,8.66-1.89,9.78-10.87c0.03-0.21,0.04-0.36,0.06-0.44c0.17-0.83,0.79-1.23,1.22-1.41v-3.13
				c-7.59-3.7-18.57-1.77-21.52-0.39c-2.54,1.19-3.97,1.15-4.36,1.1c-0.38,0.05-1.81,0.09-4.36-1.1
				c-2.95-1.38-13.93-3.31-21.52,0.39v3.13c0.42,0.18,1.05,0.58,1.22,1.41c0.02,0.08,0.04,0.23,0.06,0.44
				c1.12,8.98,5.93,10.87,9.78,10.87c9.24,0,12.75-9.51,12.75-11.17C274.39-122.46,275.73-122.95,276.44-122.98z"/>
		</g>
	</g>
	<g>
		<g>
			<path class="st2" d="M291.28-110.91c-8.45,0-11.39-8.88-11.45-9.89c0-1.28,0.37-3.32,1.54-3.87c1.4-0.66,5.63-1.63,10.26-1.63
				c3.19,0,6.09,0.46,8.52,1.33c0.54,0.19,0.88,0.72,0.88,1.3l0,0c0,0.36-0.14,0.7-0.39,0.96c-0.37,0.39-0.67,0.89-0.8,1.54
				c-0.02,0.1-0.05,0.28-0.08,0.53C298.96-114.19,296.1-110.91,291.28-110.91z M261.63-110.91c-4.83,0-7.68-3.27-8.49-9.73
				c-0.03-0.25-0.06-0.43-0.08-0.53c-0.13-0.65-0.43-1.16-0.8-1.54c-0.25-0.26-0.39-0.6-0.39-0.96l0,0c0-0.57,0.35-1.1,0.88-1.3
				c2.42-0.88,5.33-1.33,8.52-1.33c4.63,0,8.86,0.97,10.26,1.63c1.18,0.55,1.54,2.59,1.54,3.89
				C273.02-119.8,270.08-110.91,261.63-110.91z"/>
		</g>
	</g>
</g>
<g>
	<g id="XMLID_00000168817379392342006110000004736129124487480489_">
		<g>
			<g>
				<path class="st3" d="M313.11-95.58h-0.05h-5.74v-18.83c0-3.16,0.87-6.3,2.7-8.89c3.54-5.03,7.79-4.44,7.79-4.44l-2.8,5.06
					l2.8,2.8l-1.01,3.82l7.95,6.16c0.01,0.01,0.01,0.02,0.01,0.02s0,0,0.01,0l7.96-6.18l-1.01-3.82l2.8-2.8l-2.8-5.05v-0.01
					c0,0,0,0,0.01,0c0.27-0.03,4.36-0.42,7.78,4.44c1.83,2.59,2.7,5.73,2.7,8.89v18.83h-5.74l-0.05-20.45l-0.08,11.06l0.13,14.87
					h-11l-0.71-2.65l-0.7,2.65h-11L313.11-95.58z"/>
			</g>
			<g>
				<path class="st4" d="M331.72-127.73l2.8,5.05l-2.8,2.8l1.01,3.82l-7.96,6.18c0.07-0.23,1.27-3.73,2.69-7.59
					c1.57-4.3,3.4-9.06,4.25-10.25C331.71-127.73,331.72-127.73,331.72-127.73z"/>
			</g>
			<g>
				<path class="st5" d="M331.29-129.71l0.44,1.97c-0.01,0-0.01,0-0.01,0v0.01c0,0-0.01,0-0.01,0.01l-4.49,3.88l-0.88-1.54
					l-1.57-2.75c1.84,0,6.24-2.84,6.24-2.84L331.29-129.71z"/>
			</g>
			<g>
				<path class="st6" d="M327.22-123.84l4.49-3.88c-0.85,1.19-2.68,5.95-4.25,10.25l-1.75-6.37c0.09-0.08,0.62-0.55,0.62-1.54h0.01
					L327.22-123.84z"/>
			</g>
			<g>
				<path class="st6" d="M331-130.97h0.01c0,0-4.4,2.84-6.24,2.84s-6.24-2.84-6.24-2.84s0-0.75,6.24-0.75
					C331-131.72,331-130.97,331-130.97z"/>
			</g>
			<g>
				<path class="st7" d="M325.71-123.84l1.75,6.37c-1.42,3.86-2.62,7.36-2.69,7.59c-0.01,0-0.01,0-0.01,0s0-0.01-0.01-0.02
					c-0.1-0.29-1.29-3.76-2.68-7.57l1.76-6.37c0,0,0.65,0,0.94,0c0.26,0,0.83,0,0.93,0C325.7-123.84,325.7-123.84,325.71-123.84z"/>
			</g>
			<g>
				<path class="st7" d="M324.77-128.13l1.57,2.75h-0.01c0,0.99-0.53,1.46-0.62,1.54c-0.01,0-0.01,0-0.01,0c-0.1,0-0.67,0-0.93,0
					c-0.29,0-0.94,0-0.94,0s-0.63-0.46-0.63-1.54L324.77-128.13z"/>
			</g>
			<g>
				<path class="st5" d="M324.77-128.13l-1.57,2.75l-0.88,1.54l-4.51-3.9l0.44-1.97l0.28-1.26
					C318.53-130.97,322.93-128.13,324.77-128.13z"/>
			</g>
			<g>
				<path class="st4" d="M324.75-109.9l-7.95-6.16l1.01-3.82l-2.8-2.8l2.8-5.06c0.84,1.16,2.68,5.95,4.26,10.27
					C323.46-113.66,324.65-110.19,324.75-109.9z"/>
			</g>
			<g>
				<path class="st6" d="M323.83-123.84l-1.76,6.37c-1.58-4.32-3.42-9.11-4.26-10.27l4.51,3.9l0.88-1.54
					C323.2-124.3,323.83-123.84,323.83-123.84z"/>
			</g>
		</g>
		<g>
			<g>
				<path class="st2" d="M324.45-109.51l-7.95-6.16c-0.16-0.12-0.23-0.33-0.18-0.52l0.94-3.54l-2.6-2.6
					c-0.16-0.16-0.19-0.4-0.08-0.6l2.8-5.06l0.88,0.48l-2.62,4.73l2.53,2.53c0.13,0.13,0.18,0.31,0.13,0.48l-0.92,3.5l7.69,5.96
					L324.45-109.51z"/>
			</g>
			<g>
				<path class="st2" d="M325.08-109.49l-0.61-0.79l7.7-5.98l-0.92-3.5c-0.05-0.17,0-0.36,0.13-0.48l2.53-2.53l-2.62-4.72l0.88-0.48
					l2.8,5.05c0.11,0.2,0.07,0.44-0.08,0.6l-2.6,2.6l0.94,3.54c0.05,0.19-0.02,0.4-0.18,0.52L325.08-109.49z"/>
			</g>
			<g>
				<path class="st2" d="M322.32-123.34c-0.12,0-0.24-0.04-0.33-0.12l-4.51-3.9c-0.14-0.12-0.2-0.31-0.16-0.49l0.72-3.23
					c0.04-0.16,0.15-0.29,0.3-0.35c0.15-0.06,0.32-0.04,0.46,0.04c1.19,0.77,4.58,2.76,5.97,2.76c0.18,0,0.34,0.09,0.43,0.25
					c0.09,0.15,0.09,0.34,0,0.5l-2.45,4.29c-0.07,0.13-0.2,0.22-0.35,0.25C322.38-123.35,322.35-123.34,322.32-123.34z
					 M318.37-127.93l3.83,3.31l1.78-3.12c-1.64-0.39-3.98-1.74-5.11-2.43L318.37-127.93z"/>
			</g>
			<g>
				<path class="st2" d="M327.22-123.34c-0.03,0-0.06,0-0.08-0.01c-0.15-0.03-0.28-0.12-0.35-0.25l-2.45-4.29
					c-0.09-0.16-0.09-0.34,0-0.5c0.09-0.15,0.25-0.25,0.43-0.25c1.39,0,4.78-1.99,5.97-2.76c0.14-0.09,0.31-0.1,0.46-0.04
					c0.15,0.06,0.26,0.19,0.3,0.35l0.72,3.23c0.04,0.17-0.02,0.35-0.14,0.46c-0.01,0.01-0.03,0.03-0.04,0.04l-4.49,3.88
					C327.46-123.39,327.34-123.34,327.22-123.34z M325.57-127.74l1.78,3.12l3.82-3.3l-0.5-2.25
					C329.56-129.49,327.21-128.14,325.57-127.74z"/>
			</g>
			<g>
				<path class="st2" d="M331-130.47c-0.18,0-0.33-0.09-0.42-0.23c-0.19-0.11-1.22-0.52-5.81-0.52c-4.6,0-5.62,0.41-5.82,0.52
					c-0.09,0.14-0.25,0.23-0.42,0.23c-0.28,0-0.5-0.22-0.5-0.5c0-0.41,0-1.25,6.74-1.25c6.73,0,6.73,0.84,6.73,1.25
					C331.5-130.7,331.28-130.47,331-130.47z M319.03-130.97L319.03-130.97L319.03-130.97z M330.5-130.97L330.5-130.97L330.5-130.97z
					 M319.03-130.97L319.03-130.97L319.03-130.97z M330.5-130.97L330.5-130.97L330.5-130.97z M319.03-130.97L319.03-130.97
					L319.03-130.97z M330.5-130.97L330.5-130.97L330.5-130.97z"/>
			</g>
			<g>
				<path class="st2" d="M327.46-116.97c-0.22,0-0.42-0.15-0.48-0.37l-1.75-6.37c-0.07-0.27,0.08-0.54,0.35-0.62
					c0.27-0.07,0.54,0.08,0.62,0.35l1.75,6.37c0.07,0.27-0.08,0.54-0.35,0.62C327.55-116.98,327.51-116.97,327.46-116.97z"/>
			</g>
			<g>
				<path class="st2" d="M322.07-116.97c-0.04,0-0.09-0.01-0.13-0.02c-0.27-0.07-0.42-0.35-0.35-0.62l1.76-6.37
					c0.06-0.22,0.26-0.37,0.48-0.37h1.87c0.28,0,0.5,0.22,0.5,0.5s-0.22,0.5-0.5,0.5h-1.49l-1.66,6
					C322.49-117.12,322.29-116.97,322.07-116.97z"/>
			</g>
			<g>
				<path class="st2" d="M323.83-123.34c-0.1,0-0.2-0.03-0.29-0.1c-0.31-0.23-0.83-0.89-0.83-1.94c0-0.28,0.22-0.5,0.5-0.5
					s0.5,0.22,0.5,0.5c0,0.79,0.41,1.13,0.43,1.14c0.21,0.17,0.26,0.48,0.09,0.7C324.13-123.41,323.98-123.34,323.83-123.34z"/>
			</g>
			<g>
				<path class="st2" d="M325.71-123.34c-0.28,0-0.5-0.22-0.5-0.5c0-0.17,0.08-0.32,0.21-0.41c0.15-0.15,0.41-0.5,0.41-1.13
					c0-0.28,0.22-0.5,0.5-0.5s0.5,0.22,0.5,0.5c0,0.77-0.29,1.47-0.79,1.91C325.96-123.39,325.84-123.34,325.71-123.34z"/>
			</g>
			<g>
				<path class="st2" d="M336.47-89.6h-11c-0.23,0-0.42-0.15-0.48-0.37l-0.22-0.83l-0.22,0.83c-0.06,0.22-0.26,0.37-0.48,0.37h-11
					c-0.13,0-0.26-0.05-0.36-0.15s-0.15-0.22-0.14-0.36l0.05-4.98h-5.29c-0.28,0-0.5-0.22-0.5-0.5v-18.83
					c0-3.42,0.96-6.59,2.79-9.18c3.67-5.22,8.08-4.67,8.27-4.65c0.13,0.02,0.26,0.09,0.34,0.2c0.71,0.98,2.13,4.38,4.33,10.39
					c0.9,2.47,1.71,4.78,2.22,6.24c0.49-1.42,1.32-3.77,2.23-6.24c2.18-5.96,3.59-9.35,4.31-10.37l0,0
					c0.09-0.14,0.24-0.23,0.42-0.23c0.43-0.05,4.68-0.35,8.2,4.65c1.83,2.58,2.79,5.76,2.79,9.18v18.83c0,0.28-0.22,0.5-0.5,0.5
					h-5.28l0.04,4.98c0,0.13-0.05,0.26-0.14,0.36C336.73-89.66,336.61-89.6,336.47-89.6z M325.86-90.6h10.11l-0.13-14.37l0.08-11.07
					c0-0.27,0.23-0.5,0.5-0.5h0c0.28,0,0.5,0.22,0.5,0.5l0.05,19.95h4.74v-18.33c0-3.21-0.9-6.19-2.61-8.6
					c-2.87-4.08-6.17-4.28-7.1-4.25c-0.51,0.83-1.63,3.28-4.07,9.96c-1.46,3.97-2.63,7.38-2.68,7.56c-0.12,0.39-0.73,0.43-0.92,0.1
					c-0.02-0.03-0.04-0.07-0.05-0.1c-0.31-0.9-1.41-4.07-2.68-7.56c-2.01-5.49-3.38-8.84-4.07-9.96c-0.87-0.03-4.19,0.12-7.1,4.25
					c-1.71,2.42-2.61,5.39-2.61,8.6v18.33h4.79l0.08-8.89l-0.08-11.05l1-0.01l0.08,11.06l-0.13,14.37h10.11l0.6-2.28
					c0.06-0.22,0.26-0.37,0.48-0.37h0c0.23,0,0.42,0.15,0.48,0.37L325.86-90.6z"/>
			</g>
			<g>
				<path class="st2" d="M324.77-95.43c-0.28,0-0.5-0.22-0.5-0.5v-11.26c0-0.28,0.22-0.5,0.5-0.5s0.5,0.22,0.5,0.5v11.26
					C325.27-95.66,325.05-95.43,324.77-95.43z"/>
			</g>
		</g>
	</g>
</g>
<g>
	<g id="XMLID_00000095327833124471438630000000969087160187293332_">
		<g>
			<g>
				<path class="st8" d="M460.48-126.67c1.26,3.93,7.56,7.42,7.56,20.74c0,1.68-7.28,3.05-13.39,3.05c-6.12,0-13.39-1.37-13.39-3.05
					c0-13.32,6.3-16.81,7.56-20.74c0.41-1.28-0.01-3.17-0.83-4.23c-0.93-1.22-2.11-3.47-2.32-7.18c0,0,0-0.83,1.06-1.45
					c0.66-0.4,1.72-0.71,3.43-0.71c2.77,0,4.49,1,4.49,1s1.71-1,4.49-1c1.72,0,2.78,0.32,3.43,0.71c1.05,0.63,1.05,1.45,1.05,1.45
					c-0.2,3.71-1.38,5.96-2.32,7.18C460.48-129.84,460.07-127.95,460.48-126.67z"/>
			</g>
			<g>
				<path class="st9" d="M460.77-143.69c3.17,0,1.81,4.15,1.81,4.15l-0.01,0.01c-0.65-0.39-1.71-0.71-3.43-0.71
					c-2.78,0-4.49,1-4.49,1s-1.72-1-4.49-1c-1.71,0-2.77,0.31-3.43,0.71l-0.01-0.01c0,0-1.37-4.15,1.81-4.15
					c0,0,3.14-0.07,3.95-1.48c0.63-1.12,0.56-2.71,0.43-3.72h1.74h1.74c-0.14,1.01-0.21,2.6,0.43,3.72
					C457.62-143.76,460.77-143.69,460.77-143.69z"/>
			</g>
		</g>
		<g>
			<g>
				<path class="st2" d="M454.65-102.38c-4.84,0-13.89-1.04-13.89-3.55c0-9.66,3.23-14.2,5.59-17.51c0.89-1.25,1.66-2.33,1.99-3.38
					c0.34-1.07,0-2.8-0.75-3.77c-0.99-1.29-2.21-3.64-2.42-7.46c0-0.44,0.27-1.31,1.31-1.91c0.85-0.51,2.09-0.78,3.68-0.78
					c2.29,0,3.89,0.65,4.49,0.94c0.59-0.29,2.19-0.94,4.49-0.94c1.58,0,2.82,0.26,3.69,0.78l0,0c1.02,0.61,1.29,1.47,1.29,1.88
					c-0.21,3.86-1.43,6.2-2.42,7.49c-0.75,0.97-1.08,2.69-0.74,3.77c0.34,1.05,1.11,2.13,1.99,3.38c2.36,3.32,5.59,7.86,5.59,17.51
					C468.54-103.42,459.5-102.38,454.65-102.38z M450.16-139.74c-1.41,0-2.47,0.21-3.17,0.64c-0.78,0.46-0.82,1.01-0.82,1.03
					c0.2,3.53,1.32,5.68,2.22,6.86c0.95,1.24,1.35,3.29,0.91,4.69c-0.39,1.2-1.2,2.34-2.13,3.66c-2.28,3.21-5.4,7.59-5.4,16.93
					c0,0.96,6.02,2.55,12.89,2.55c6.87,0,12.89-1.59,12.89-2.55c0-9.34-3.12-13.73-5.41-16.93c-0.94-1.32-1.75-2.45-2.13-3.66
					c-0.45-1.4-0.05-3.46,0.9-4.69c0.9-1.17,2.02-3.32,2.22-6.9c0,0,0,0,0,0c0,0-0.05-0.54-0.81-1l0,0
					c-0.7-0.42-1.79-0.64-3.17-0.64c-2.59,0-4.22,0.92-4.24,0.93c-0.15,0.09-0.35,0.09-0.5,0
					C454.39-138.81,452.75-139.74,450.16-139.74z"/>
			</g>
			<g>
				<path class="st2" d="M446.25-139.38c-0.03-0.1-0.81-2.49,0.19-3.87c0.45-0.62,1.15-0.94,2.09-0.94
					c0.73-0.02,2.97-0.28,3.52-1.23c0.42-0.75,0.55-1.96,0.37-3.41c-0.02-0.14,0.03-0.29,0.12-0.39c0.09-0.11,0.23-0.17,0.38-0.17
					h3.48c0.14,0,0.28,0.06,0.38,0.17c0.09,0.11,0.14,0.25,0.12,0.4c-0.11,0.83-0.22,2.38,0.37,3.4c0.54,0.95,2.78,1.21,3.53,1.23
					l0,0c0.92,0,1.62,0.31,2.07,0.93c1,1.38,0.23,3.77,0.2,3.87l-0.95-0.31c0.18-0.56,0.52-2.17-0.06-2.98
					c-0.25-0.35-0.67-0.52-1.27-0.52c-0.36-0.01-3.47-0.12-4.38-1.73c-0.59-1.03-0.65-2.37-0.55-3.47h-2.37
					c0.09,1.1,0.03,2.44-0.55,3.47c-0.93,1.61-4.02,1.73-4.38,1.73c-0.62,0-1.04,0.17-1.29,0.52c-0.58,0.8-0.24,2.42-0.06,2.97
					L446.25-139.38z"/>
			</g>
		</g>
	</g>
</g>
</svg>
