<?xml version="1.0" encoding="utf-8"?>
<!-- Generator: Adobe Illustrator 27.0.0, SVG Export Plug-In . SVG Version: 6.00 Build 0)  -->
<svg version="1.1" id="Layer_1" xmlns="http://www.w3.org/2000/svg" xmlns:xlink="http://www.w3.org/1999/xlink" x="0px" y="0px"
	 viewBox="0 0 70 70" style="enable-background:new 0 0 70 70;" xml:space="preserve">
<style type="text/css">
	.st0{fill:#FFFFFF;}
	.st1{fill:#FCEAD6;}
	.st2{fill:#191919;}
</style>
<g>
	<g id="XMLID_00000095327833124471438630000000969087160187293332_">
		<g>
			<g>
				<path class="st0" d="M40.83,34.22c1.26,3.93,7.56,7.42,7.56,20.74c0,1.68-7.28,3.05-13.39,3.05c-6.12,0-13.39-1.37-13.39-3.05
					c0-13.32,6.3-16.81,7.56-20.74c0.41-1.28-0.01-3.17-0.83-4.23c-0.93-1.22-2.11-3.47-2.32-7.18c0,0,0-0.83,1.06-1.45
					c0.66-0.4,1.72-0.71,3.43-0.71c2.77,0,4.49,1,4.49,1s1.71-1,4.49-1c1.72,0,2.78,0.32,3.43,0.71c1.05,0.63,1.05,1.45,1.05,1.45
					c-0.2,3.71-1.38,5.96-2.32,7.18C40.83,31.05,40.42,32.94,40.83,34.22z"/>
			</g>
			<g>
				<path class="st1" d="M41.12,17.2c3.17,0,1.81,4.15,1.81,4.15l-0.01,0.01c-0.65-0.39-1.71-0.71-3.43-0.71c-2.78,0-4.49,1-4.49,1
					s-1.72-1-4.49-1c-1.71,0-2.77,0.31-3.43,0.71l-0.01-0.01c0,0-1.37-4.15,1.81-4.15c0,0,3.14-0.07,3.95-1.48
					c0.63-1.12,0.56-2.71,0.43-3.72H35h1.74c-0.14,1.01-0.21,2.6,0.43,3.72C37.97,17.13,41.12,17.2,41.12,17.2z"/>
			</g>
		</g>
		<g>
			<g>
				<path class="st2" d="M35,58.51c-4.84,0-13.89-1.04-13.89-3.55c0-9.66,3.23-14.2,5.59-17.51c0.89-1.25,1.66-2.33,1.99-3.38
					c0.34-1.07,0-2.8-0.75-3.77c-0.99-1.29-2.21-3.64-2.42-7.46c0-0.44,0.27-1.31,1.31-1.91c0.85-0.51,2.09-0.78,3.68-0.78
					c2.29,0,3.89,0.65,4.49,0.94c0.59-0.29,2.19-0.94,4.49-0.94c1.58,0,2.82,0.26,3.69,0.78l0,0c1.02,0.61,1.29,1.47,1.29,1.88
					c-0.21,3.86-1.43,6.2-2.42,7.49c-0.75,0.97-1.08,2.69-0.74,3.77c0.34,1.05,1.11,2.13,1.99,3.38c2.36,3.32,5.59,7.86,5.59,17.51
					C48.89,57.46,39.84,58.51,35,58.51z M30.51,21.15c-1.41,0-2.47,0.21-3.17,0.64c-0.78,0.46-0.82,1.01-0.82,1.03
					c0.2,3.53,1.32,5.68,2.22,6.86c0.95,1.24,1.35,3.29,0.91,4.69c-0.39,1.2-1.2,2.34-2.13,3.66c-2.28,3.21-5.4,7.59-5.4,16.93
					c0,0.96,6.02,2.55,12.89,2.55c6.87,0,12.89-1.59,12.89-2.55c0-9.34-3.12-13.73-5.41-16.93c-0.94-1.32-1.75-2.45-2.13-3.66
					c-0.45-1.4-0.05-3.46,0.9-4.69c0.9-1.17,2.02-3.32,2.22-6.9c0,0,0,0,0,0c0,0-0.05-0.54-0.81-1l0,0
					c-0.7-0.42-1.79-0.64-3.17-0.64c-2.59,0-4.22,0.92-4.24,0.93c-0.15,0.09-0.35,0.09-0.5,0C34.73,22.07,33.1,21.15,30.51,21.15z"
					/>
			</g>
			<g>
				<path class="st2" d="M26.6,21.5c-0.03-0.1-0.81-2.49,0.19-3.87c0.45-0.62,1.15-0.94,2.09-0.94c0.73-0.02,2.97-0.28,3.52-1.23
					c0.42-0.75,0.55-1.96,0.37-3.41c-0.02-0.14,0.03-0.29,0.12-0.39c0.09-0.11,0.23-0.17,0.38-0.17h3.48c0.14,0,0.28,0.06,0.38,0.17
					c0.09,0.11,0.14,0.25,0.12,0.4c-0.11,0.83-0.22,2.38,0.37,3.4c0.54,0.95,2.78,1.21,3.53,1.23l0,0c0.92,0,1.62,0.31,2.07,0.93
					c1,1.38,0.23,3.77,0.2,3.87l-0.95-0.31c0.18-0.56,0.52-2.17-0.06-2.98c-0.25-0.35-0.67-0.52-1.27-0.52
					c-0.36-0.01-3.47-0.12-4.38-1.73c-0.59-1.03-0.65-2.37-0.55-3.47h-2.37c0.09,1.1,0.03,2.44-0.55,3.47
					c-0.93,1.61-4.02,1.73-4.38,1.73c-0.62,0-1.04,0.17-1.29,0.52c-0.58,0.8-0.24,2.42-0.06,2.97L26.6,21.5z"/>
			</g>
		</g>
	</g>
</g>
</svg>
