<?xml version="1.0" encoding="utf-8"?>
<!-- Generator: Adobe Illustrator 27.0.0, SVG Export Plug-In . SVG Version: 6.00 Build 0)  -->
<svg version="1.1" id="Layer_1" xmlns="http://www.w3.org/2000/svg" xmlns:xlink="http://www.w3.org/1999/xlink" x="0px" y="0px"
	 viewBox="0 0 70 70" style="enable-background:new 0 0 70 70;" xml:space="preserve">
<style type="text/css">
	.st0{fill:#999999;}
	.st1{fill:#455863;}
	.st2{fill:#516C76;}
	.st3{fill:#E4E7ED;}
	.st4{fill:#CED4DD;}
	.st5{fill:#E94F4D;}
	.st6{fill:#191919;}
	.st7{fill:#FFFFFF;}
	.st8{fill:#FCEAD6;}
</style>
<g>
	<g>
		<path class="st0" d="M487-178.07c-4.84,0-13.89-1.04-13.89-3.55c0-9.65,3.23-14.2,5.59-17.51c0.89-1.25,1.66-2.33,1.99-3.38
			c0.34-1.07,0-2.8-0.74-3.77c-0.99-1.29-2.21-3.63-2.42-7.45c0-0.01,0-0.02,0-0.03c0-0.11,0.06-2.66,4.99-2.66
			c2.29,0,3.9,0.65,4.49,0.94c0.59-0.29,2.2-0.94,4.49-0.94c4.93,0,4.99,2.55,4.99,2.66c-0.21,3.85-1.44,6.19-2.43,7.48
			c-0.75,0.97-1.09,2.7-0.74,3.77c0.34,1.05,1.1,2.13,1.99,3.38c2.36,3.32,5.59,7.86,5.59,17.51
			C500.89-179.11,491.84-178.07,487-178.07z M478.52-213.77c0.2,3.55,1.32,5.7,2.22,6.87c0.95,1.24,1.35,3.3,0.9,4.69
			c-0.38,1.2-1.19,2.34-2.13,3.66c-2.28,3.21-5.4,7.6-5.4,16.93c0,0.96,6.02,2.55,12.89,2.55c6.86,0,12.89-1.59,12.89-2.55
			c0-9.33-3.12-13.73-5.4-16.93c-0.94-1.32-1.75-2.46-2.13-3.66c-0.44-1.39-0.05-3.45,0.9-4.69c0.9-1.18,2.02-3.33,2.22-6.9
			c-0.03-0.54-0.9-1.63-3.99-1.63c-2.61,0-4.22,0.92-4.24,0.93c-0.15,0.09-0.35,0.09-0.5,0c-0.02-0.01-1.65-0.93-4.24-0.93
			C479.45-215.43,478.57-214.35,478.52-213.77z"/>
	</g>
	<g>
		<path class="st0" d="M495.41-215.07l-0.95-0.31c0.18-0.56,0.52-2.17-0.06-2.98c-0.25-0.35-0.67-0.52-1.28-0.52
			c-0.36-0.01-3.47-0.13-4.39-1.74c-0.58-1.02-0.64-2.37-0.55-3.47h-2.37c0.09,1.1,0.03,2.44-0.55,3.47
			c-0.92,1.61-4.02,1.73-4.37,1.74c-0.62,0-1.04,0.17-1.29,0.52c-0.58,0.81-0.24,2.42-0.06,2.97l-0.95,0.31
			c-0.03-0.1-0.8-2.49,0.2-3.87c0.45-0.62,1.15-0.93,2.09-0.93c0.73-0.02,2.98-0.29,3.52-1.23c0.58-1.02,0.48-2.57,0.37-3.4
			c-0.02-0.14,0.02-0.29,0.12-0.4c0.09-0.11,0.23-0.17,0.38-0.17h3.48c0.14,0,0.28,0.06,0.38,0.17c0.1,0.11,0.14,0.25,0.12,0.4
			c-0.11,0.84-0.21,2.39,0.37,3.4c0.54,0.95,2.79,1.21,3.53,1.23l0,0c0.92,0,1.62,0.31,2.07,0.93
			C496.21-217.56,495.44-215.17,495.41-215.07z"/>
	</g>
</g>
<g>
	<g id="XMLID_00000168817379392342006110000004736129124487480489_">
		<g>
			<g>
				<path class="st1" d="M23.34,50.33h-0.05h-5.74V31.5c0-3.16,0.87-6.3,2.7-8.89c3.54-5.03,7.79-4.44,7.79-4.44l-2.8,5.06l2.8,2.8
					l-1.01,3.82l7.95,6.16c0.01,0.01,0.01,0.02,0.01,0.02s0,0,0.01,0l7.96-6.18l-1.01-3.82l2.8-2.8l-2.8-5.05v-0.01c0,0,0,0,0.01,0
					c0.27-0.03,4.36-0.42,7.78,4.44c1.83,2.59,2.7,5.73,2.7,8.89v18.83H46.7l-0.05-20.45l-0.08,11.06l0.13,14.87h-11l-0.71-2.65
					l-0.7,2.65h-11L23.34,50.33z"/>
			</g>
			<g>
				<path class="st2" d="M41.95,18.18l2.8,5.05l-2.8,2.8l1.01,3.82L35,36.03c0.07-0.23,1.27-3.73,2.69-7.59
					C39.26,24.14,41.09,19.38,41.95,18.18C41.94,18.18,41.95,18.18,41.95,18.18z"/>
			</g>
			<g>
				<path class="st3" d="M41.52,16.2l0.44,1.97c-0.01,0-0.01,0-0.01,0v0.01c0,0-0.01,0-0.01,0.01l-4.49,3.88l-0.88-1.54L35,17.78
					c1.84,0,6.24-2.84,6.24-2.84L41.52,16.2z"/>
			</g>
			<g>
				<path class="st4" d="M37.45,22.07l4.49-3.88c-0.85,1.19-2.68,5.95-4.25,10.25l-1.75-6.37c0.09-0.08,0.62-0.55,0.62-1.54h0.01
					L37.45,22.07z"/>
			</g>
			<g>
				<path class="st4" d="M41.23,14.94L41.23,14.94c0.01,0-4.39,2.84-6.23,2.84s-6.24-2.84-6.24-2.84s0-0.75,6.24-0.75
					C41.23,14.19,41.23,14.94,41.23,14.94z"/>
			</g>
			<g>
				<path class="st5" d="M35.94,22.07l1.75,6.37c-1.42,3.86-2.62,7.36-2.69,7.59c-0.01,0-0.01,0-0.01,0s0-0.01-0.01-0.02
					c-0.1-0.29-1.29-3.76-2.68-7.57l1.76-6.37c0,0,0.65,0,0.94,0C35.26,22.07,35.83,22.07,35.94,22.07
					C35.93,22.07,35.93,22.07,35.94,22.07z"/>
			</g>
			<g>
				<path class="st5" d="M35,17.78l1.57,2.75h-0.01c0,0.99-0.53,1.46-0.62,1.54c-0.01,0-0.01,0-0.01,0c-0.1,0-0.67,0-0.93,0
					c-0.29,0-0.94,0-0.94,0s-0.63-0.46-0.63-1.54L35,17.78z"/>
			</g>
			<g>
				<path class="st3" d="M35,17.78l-1.57,2.75l-0.88,1.54l-4.51-3.9l0.44-1.97l0.28-1.26C28.76,14.94,33.16,17.78,35,17.78z"/>
			</g>
			<g>
				<path class="st2" d="M34.98,36.01l-7.95-6.16l1.01-3.82l-2.8-2.8l2.8-5.06c0.84,1.16,2.68,5.95,4.26,10.27
					C33.69,32.25,34.88,35.72,34.98,36.01z"/>
			</g>
			<g>
				<path class="st4" d="M34.06,22.07l-1.76,6.37c-1.58-4.32-3.42-9.11-4.26-10.27l4.51,3.9l0.88-1.54
					C33.43,21.61,34.06,22.07,34.06,22.07z"/>
			</g>
		</g>
		<g>
			<g>
				<path class="st6" d="M34.68,36.4l-7.95-6.16c-0.16-0.12-0.23-0.33-0.18-0.52l0.94-3.54l-2.6-2.6c-0.16-0.16-0.19-0.4-0.08-0.6
					l2.8-5.06l0.88,0.48l-2.62,4.73l2.53,2.53c0.13,0.13,0.18,0.31,0.13,0.48l-0.92,3.5l7.69,5.96L34.68,36.4z"/>
			</g>
			<g>
				<path class="st6" d="M35.31,36.42l-0.61-0.79l7.7-5.98l-0.92-3.5c-0.05-0.17,0-0.36,0.13-0.48l2.53-2.53l-2.62-4.72l0.88-0.48
					l2.8,5.05c0.11,0.2,0.07,0.44-0.08,0.6l-2.6,2.6l0.94,3.54c0.05,0.19-0.02,0.4-0.18,0.52L35.31,36.42z"/>
			</g>
			<g>
				<path class="st6" d="M32.56,22.57c-0.12,0-0.24-0.04-0.33-0.12l-4.51-3.9c-0.14-0.12-0.2-0.31-0.16-0.49l0.72-3.23
					c0.04-0.16,0.15-0.29,0.3-0.35c0.15-0.06,0.32-0.04,0.46,0.04c1.19,0.77,4.58,2.76,5.97,2.76c0.18,0,0.34,0.09,0.43,0.25
					c0.09,0.15,0.09,0.34,0,0.5l-2.45,4.29c-0.07,0.13-0.2,0.22-0.35,0.25C32.61,22.57,32.58,22.57,32.56,22.57z M28.6,17.99
					l3.83,3.31l1.78-3.12c-1.64-0.39-3.98-1.74-5.11-2.43L28.6,17.99z"/>
			</g>
			<g>
				<path class="st6" d="M37.45,22.57c-0.03,0-0.06,0-0.08-0.01c-0.15-0.03-0.28-0.12-0.35-0.25l-2.45-4.29
					c-0.09-0.16-0.09-0.34,0-0.5c0.09-0.15,0.25-0.25,0.43-0.25c1.39,0,4.78-1.99,5.97-2.76c0.14-0.09,0.31-0.1,0.46-0.04
					c0.15,0.06,0.26,0.19,0.3,0.35l0.72,3.23c0.04,0.17-0.02,0.35-0.14,0.46c-0.01,0.01-0.03,0.03-0.04,0.04l-4.49,3.88
					C37.69,22.53,37.57,22.57,37.45,22.57z M35.8,18.17l1.78,3.12l3.82-3.3l-0.5-2.25C39.79,16.43,37.45,17.78,35.8,18.17z"/>
			</g>
			<g>
				<path class="st6" d="M41.23,15.44c-0.18,0-0.33-0.09-0.42-0.23c-0.19-0.11-1.22-0.52-5.81-0.52c-4.6,0-5.62,0.41-5.82,0.52
					c-0.09,0.14-0.25,0.23-0.42,0.23c-0.28,0-0.5-0.22-0.5-0.5c0-0.41,0-1.25,6.74-1.25c6.73,0,6.73,0.84,6.73,1.25
					C41.73,15.22,41.51,15.44,41.23,15.44z M29.27,14.95L29.27,14.95L29.27,14.95z M40.73,14.95L40.73,14.95L40.73,14.95z
					 M29.27,14.94L29.27,14.94L29.27,14.94z M40.73,14.94L40.73,14.94L40.73,14.94z M29.27,14.94L29.27,14.94L29.27,14.94z
					 M40.73,14.94L40.73,14.94L40.73,14.94z"/>
			</g>
			<g>
				<path class="st6" d="M37.69,28.94c-0.22,0-0.42-0.15-0.48-0.37l-1.75-6.37c-0.07-0.27,0.08-0.54,0.35-0.62
					c0.27-0.07,0.54,0.08,0.62,0.35l1.75,6.37c0.07,0.27-0.08,0.54-0.35,0.62C37.78,28.93,37.74,28.94,37.69,28.94z"/>
			</g>
			<g>
				<path class="st6" d="M32.31,28.94c-0.04,0-0.09-0.01-0.13-0.02c-0.27-0.07-0.42-0.35-0.35-0.62l1.76-6.37
					c0.06-0.22,0.26-0.37,0.48-0.37h1.87c0.28,0,0.5,0.22,0.5,0.5s-0.22,0.5-0.5,0.5h-1.49l-1.66,6
					C32.73,28.79,32.52,28.94,32.31,28.94z"/>
			</g>
			<g>
				<path class="st6" d="M34.06,22.57c-0.1,0-0.2-0.03-0.29-0.1c-0.31-0.23-0.83-0.89-0.83-1.94c0-0.28,0.22-0.5,0.5-0.5
					s0.5,0.22,0.5,0.5c0,0.79,0.41,1.13,0.43,1.14c0.21,0.17,0.26,0.48,0.09,0.7C34.36,22.5,34.21,22.57,34.06,22.57z"/>
			</g>
			<g>
				<path class="st6" d="M35.94,22.57c-0.28,0-0.5-0.22-0.5-0.5c0-0.17,0.08-0.32,0.21-0.41c0.15-0.15,0.41-0.5,0.41-1.13
					c0-0.28,0.22-0.5,0.5-0.5s0.5,0.22,0.5,0.5c0,0.77-0.29,1.47-0.79,1.91C36.19,22.52,36.07,22.57,35.94,22.57z"/>
			</g>
			<g>
				<path class="st6" d="M46.7,56.31h-11c-0.23,0-0.42-0.15-0.48-0.37L35,55.1l-0.22,0.83c-0.06,0.22-0.26,0.37-0.48,0.37h-11
					c-0.13,0-0.26-0.05-0.36-0.15s-0.15-0.22-0.14-0.36l0.05-4.98h-5.29c-0.28,0-0.5-0.22-0.5-0.5V31.5c0-3.42,0.96-6.59,2.79-9.18
					c3.67-5.22,8.08-4.67,8.27-4.65c0.13,0.02,0.26,0.09,0.34,0.2c0.71,0.98,2.13,4.38,4.33,10.39c0.9,2.47,1.71,4.78,2.22,6.24
					c0.49-1.42,1.32-3.77,2.23-6.24c2.18-5.96,3.59-9.35,4.31-10.37l0,0c0.09-0.14,0.24-0.23,0.42-0.23
					c0.43-0.05,4.68-0.35,8.2,4.65c1.83,2.58,2.79,5.76,2.79,9.18v18.83c0,0.28-0.22,0.5-0.5,0.5h-5.28l0.04,4.98
					c0,0.13-0.05,0.26-0.14,0.36C46.97,56.26,46.84,56.31,46.7,56.31z M36.09,55.31H46.2l-0.13-14.37l0.08-11.07
					c0-0.27,0.23-0.5,0.5-0.5h0c0.28,0,0.5,0.22,0.5,0.5l0.05,19.95h4.74V31.5c0-3.21-0.9-6.19-2.61-8.6
					c-2.87-4.08-6.17-4.28-7.1-4.25c-0.51,0.83-1.63,3.28-4.07,9.96c-1.46,3.97-2.63,7.38-2.68,7.56c-0.12,0.39-0.73,0.43-0.92,0.1
					c-0.02-0.03-0.04-0.07-0.05-0.1c-0.31-0.9-1.41-4.07-2.68-7.56c-2.01-5.49-3.38-8.84-4.07-9.96c-0.87-0.03-4.19,0.12-7.1,4.25
					c-1.71,2.42-2.61,5.39-2.61,8.6v18.33h4.79l0.08-8.89l-0.08-11.05l1-0.01l0.08,11.06L23.8,55.31h10.11l0.6-2.28
					c0.06-0.22,0.26-0.37,0.48-0.37h0c0.23,0,0.42,0.15,0.48,0.37L36.09,55.31z"/>
			</g>
			<g>
				<path class="st6" d="M35,50.48c-0.28,0-0.5-0.22-0.5-0.5V38.72c0-0.28,0.22-0.5,0.5-0.5s0.5,0.22,0.5,0.5v11.26
					C35.5,50.26,35.28,50.48,35,50.48z"/>
			</g>
		</g>
	</g>
</g>
<g>
	<g id="XMLID_00000095327833124471438630000000969087160187293332_">
		<g>
			<g>
				<path class="st7" d="M460.48-126.67c1.26,3.93,7.56,7.42,7.56,20.74c0,1.68-7.28,3.05-13.39,3.05c-6.12,0-13.39-1.37-13.39-3.05
					c0-13.32,6.3-16.81,7.56-20.74c0.41-1.28-0.01-3.17-0.83-4.23c-0.93-1.22-2.11-3.47-2.32-7.18c0,0,0-0.83,1.06-1.45
					c0.66-0.4,1.72-0.71,3.43-0.71c2.77,0,4.49,1,4.49,1s1.71-1,4.49-1c1.72,0,2.78,0.32,3.43,0.71c1.05,0.63,1.05,1.45,1.05,1.45
					c-0.2,3.71-1.38,5.96-2.32,7.18C460.48-129.84,460.07-127.95,460.48-126.67z"/>
			</g>
			<g>
				<path class="st8" d="M460.77-143.69c3.17,0,1.81,4.15,1.81,4.15l-0.01,0.01c-0.65-0.39-1.71-0.71-3.43-0.71
					c-2.78,0-4.49,1-4.49,1s-1.72-1-4.49-1c-1.71,0-2.77,0.31-3.43,0.71l-0.01-0.01c0,0-1.37-4.15,1.81-4.15
					c0,0,3.14-0.07,3.95-1.48c0.63-1.12,0.56-2.71,0.43-3.72h1.74h1.74c-0.14,1.01-0.21,2.6,0.43,3.72
					C457.62-143.76,460.77-143.69,460.77-143.69z"/>
			</g>
		</g>
		<g>
			<g>
				<path class="st6" d="M454.65-102.38c-4.84,0-13.89-1.04-13.89-3.55c0-9.66,3.23-14.2,5.59-17.51c0.89-1.25,1.66-2.33,1.99-3.38
					c0.34-1.07,0-2.8-0.75-3.77c-0.99-1.29-2.21-3.64-2.42-7.46c0-0.44,0.27-1.31,1.31-1.91c0.85-0.51,2.09-0.78,3.68-0.78
					c2.29,0,3.89,0.65,4.49,0.94c0.59-0.29,2.19-0.94,4.49-0.94c1.58,0,2.82,0.26,3.69,0.78l0,0c1.02,0.61,1.29,1.47,1.29,1.88
					c-0.21,3.86-1.43,6.2-2.42,7.49c-0.75,0.97-1.08,2.69-0.74,3.77c0.34,1.05,1.11,2.13,1.99,3.38c2.36,3.32,5.59,7.86,5.59,17.51
					C468.54-103.42,459.5-102.38,454.65-102.38z M450.16-139.74c-1.41,0-2.47,0.21-3.17,0.64c-0.78,0.46-0.82,1.01-0.82,1.03
					c0.2,3.53,1.32,5.68,2.22,6.86c0.95,1.24,1.35,3.29,0.91,4.69c-0.39,1.2-1.2,2.34-2.13,3.66c-2.28,3.21-5.4,7.59-5.4,16.93
					c0,0.96,6.02,2.55,12.89,2.55c6.87,0,12.89-1.59,12.89-2.55c0-9.34-3.12-13.73-5.41-16.93c-0.94-1.32-1.75-2.45-2.13-3.66
					c-0.45-1.4-0.05-3.46,0.9-4.69c0.9-1.17,2.02-3.32,2.22-6.9c0,0,0,0,0,0c0,0-0.05-0.54-0.81-1l0,0
					c-0.7-0.42-1.79-0.64-3.17-0.64c-2.59,0-4.22,0.92-4.24,0.93c-0.15,0.09-0.35,0.09-0.5,0
					C454.39-138.81,452.75-139.74,450.16-139.74z"/>
			</g>
			<g>
				<path class="st6" d="M446.25-139.38c-0.03-0.1-0.81-2.49,0.19-3.87c0.45-0.62,1.15-0.94,2.09-0.94
					c0.73-0.02,2.97-0.28,3.52-1.23c0.42-0.75,0.55-1.96,0.37-3.41c-0.02-0.14,0.03-0.29,0.12-0.39c0.09-0.11,0.23-0.17,0.38-0.17
					h3.48c0.14,0,0.28,0.06,0.38,0.17c0.09,0.11,0.14,0.25,0.12,0.4c-0.11,0.83-0.22,2.38,0.37,3.4c0.54,0.95,2.78,1.21,3.53,1.23
					l0,0c0.92,0,1.62,0.31,2.07,0.93c1,1.38,0.23,3.77,0.2,3.87l-0.95-0.31c0.18-0.56,0.52-2.17-0.06-2.98
					c-0.25-0.35-0.67-0.52-1.27-0.52c-0.36-0.01-3.47-0.12-4.38-1.73c-0.59-1.03-0.65-2.37-0.55-3.47h-2.37
					c0.09,1.1,0.03,2.44-0.55,3.47c-0.93,1.61-4.02,1.73-4.38,1.73c-0.62,0-1.04,0.17-1.29,0.52c-0.58,0.8-0.24,2.42-0.06,2.97
					L446.25-139.38z"/>
			</g>
		</g>
	</g>
</g>
</svg>
