<?xml version="1.0" encoding="utf-8"?>
<!-- Generator: Adobe Illustrator 27.0.0, SVG Export Plug-In . SVG Version: 6.00 Build 0)  -->
<svg version="1.1" id="Layer_1" xmlns="http://www.w3.org/2000/svg" xmlns:xlink="http://www.w3.org/1999/xlink" x="0px" y="0px"
	 viewBox="0 0 70 70" style="enable-background:new 0 0 70 70;" xml:space="preserve">
<style type="text/css">
	.st0{fill:#999999;}
	.st1{fill:#999999;stroke:#191919;stroke-linecap:round;stroke-linejoin:round;stroke-miterlimit:1;}
	.st2{fill:#5A5E5A;}
	.st3{fill:#3E403E;}
	.st4{fill:#2C2D2C;}
	.st5{fill:#191919;}
	.st6{fill:#DDDEE0;}
	.st7{fill:#95969A;}
	.st8{fill:#1E5085;}
	.st9{fill:#00D1BB;}
	.st10{fill:#00AA8D;}
	.st11{fill:#FFD100;}
	.st12{fill:#F7F097;}
	.st13{fill:#F7CA3D;}
	.st14{fill:#636363;}
	.st15{fill:#455863;}
	.st16{fill:#516C76;}
	.st17{fill:#E4E7ED;}
	.st18{fill:#CED4DD;}
	.st19{fill:#E94F4D;}
	.st20{fill:#FFFFFF;}
	.st21{fill:#FCEAD6;}
</style>
<g>
	<g>
		<path class="st0" d="M-12.8-203.21c-0.01,0-0.01,0-0.02,0c-0.28-0.01-0.49-0.25-0.48-0.52l0.18-4c0.01-0.28,0.21-0.52,0.52-0.48
			c0.28,0.01,0.49,0.25,0.48,0.52l-0.18,4C-12.31-203.42-12.53-203.21-12.8-203.21z"/>
	</g>
	<g>
		<path class="st0" d="M-34.18-203.21c-0.27,0-0.49-0.21-0.5-0.48l-0.18-4c-0.01-0.28,0.2-0.51,0.48-0.52
			c0.3-0.04,0.51,0.2,0.52,0.48l0.18,4c0.01,0.28-0.2,0.51-0.48,0.52C-34.16-203.21-34.17-203.21-34.18-203.21z"/>
	</g>
	<g>
		<path class="st0" d="M-24.29-182.38h-10.07c-0.13,0-0.26-0.05-0.36-0.15c-0.09-0.09-0.15-0.22-0.14-0.36l0.11-12.96l-1.68,12.31
			c0,0.61-0.54,1.15-1.21,1.15h-4.87c-0.67,0-1.22-0.55-1.22-1.22c0.01-0.21,0.75-19.4,1.44-26.03c0.78-7.53,8.47-9.11,10.8-9.41
			c0.27-0.04,0.52,0.16,0.56,0.43c0.04,0.27-0.16,0.52-0.43,0.56c-2.76,0.36-9.25,1.91-9.94,8.53c-0.69,6.6-1.43,25.75-1.44,25.95
			c0,0.1,0.1,0.2,0.22,0.2h4.87c0.12,0,0.22-0.1,0.22-0.22l2.75-20.18c0.04-0.26,0.25-0.45,0.53-0.43c0.26,0.02,0.47,0.24,0.46,0.5
			l-0.18,20.33h9.57c0.28,0,0.5,0.22,0.5,0.5S-24.01-182.38-24.29-182.38z"/>
	</g>
	<g>
		<path class="st0" d="M-4.47-182.38h-4.86c-0.67,0-1.22-0.55-1.22-1.22l-1.68-12.28l0.11,13c0,0.13-0.05,0.26-0.14,0.36
			c-0.09,0.09-0.22,0.15-0.36,0.15h-10.06c-0.28,0-0.5-0.22-0.5-0.5s0.22-0.5,0.5-0.5h9.56l-0.18-20.33c0-0.26,0.2-0.48,0.46-0.5
			c0.29-0.02,0.5,0.17,0.53,0.43l2.75,20.11c0,0.19,0.1,0.29,0.23,0.29h4.86c0.13,0,0.23-0.1,0.23-0.22
			c-0.01-0.17-0.76-19.33-1.44-25.93c-0.68-6.53-7.08-8.12-9.8-8.51c-0.27-0.04-0.46-0.29-0.43-0.56c0.04-0.27,0.3-0.46,0.56-0.43
			c2.95,0.41,9.9,2.16,10.66,9.39C-4-203-3.25-183.81-3.24-183.62C-3.24-182.93-3.79-182.38-4.47-182.38z"/>
	</g>
	<g>
		<g>
			<path class="st0" d="M-24.86-210.72c-0.11,0-0.21-0.03-0.3-0.1l-7.02-5.25c-0.16-0.12-0.23-0.32-0.19-0.51l0.88-3.93
				c0.04-0.16,0.15-0.29,0.3-0.35c0.15-0.06,0.32-0.04,0.46,0.04c1.45,0.94,5.6,3.37,7.32,3.37c0.15,0,0.3,0.07,0.39,0.19
				c0.09,0.12,0.13,0.28,0.09,0.43l-1.45,5.72c-0.04,0.16-0.16,0.29-0.32,0.35C-24.75-210.73-24.8-210.72-24.86-210.72z
				 M-31.32-216.68l6.16,4.6l1.12-4.44c-2.03-0.37-5.28-2.27-6.63-3.09L-31.32-216.68z"/>
		</g>
		<g>
			<path class="st0" d="M-21.96-210.72c-0.06,0-0.11-0.01-0.17-0.03c-0.16-0.06-0.28-0.19-0.32-0.35l-1.45-5.72
				c-0.04-0.15,0-0.31,0.09-0.43c0.09-0.12,0.24-0.19,0.39-0.19c1.78,0,5.88-2.43,7.31-3.37c0.14-0.09,0.31-0.11,0.46-0.05
				c0.15,0.06,0.26,0.19,0.3,0.35l0.88,3.93c0.04,0.19-0.03,0.39-0.19,0.51l-7.01,5.25C-21.75-210.76-21.85-210.72-21.96-210.72z
				 M-22.78-216.51l1.12,4.43l6.15-4.6l-0.65-2.92C-17.49-218.77-20.71-216.87-22.78-216.51z"/>
		</g>
	</g>
	<g>
		<path class="st0" d="M-15.83-219.9c-0.19,0-0.35-0.1-0.44-0.25c-0.19-0.12-1.38-0.66-7.14-0.66c-5.77,0-6.97,0.55-7.15,0.66
			c-0.09,0.15-0.25,0.25-0.44,0.25c-0.28,0-0.5-0.22-0.5-0.5c0-0.39,0-1.42,8.09-1.42c8.08,0,8.08,1.03,8.08,1.42
			C-15.33-220.12-15.55-219.9-15.83-219.9z M-30.5-220.39L-30.5-220.39L-30.5-220.39z M-16.33-220.39L-16.33-220.39L-16.33-220.39z
			 M-30.5-220.39L-30.5-220.39L-30.5-220.39z M-16.33-220.39L-16.33-220.39L-16.33-220.39z M-30.5-220.39
			C-30.5-220.39-30.5-220.39-30.5-220.39S-30.5-220.39-30.5-220.39z M-16.33-220.39C-16.33-220.39-16.33-220.39-16.33-220.39
			S-16.33-220.39-16.33-220.39z M-30.5-220.4L-30.5-220.4L-30.5-220.4z M-16.33-220.4L-16.33-220.4L-16.33-220.4z M-16.33-220.4
			C-16.33-220.4-16.33-220.4-16.33-220.4C-16.33-220.4-16.33-220.4-16.33-220.4z M-30.5-220.4C-30.5-220.4-30.5-220.4-30.5-220.4
			C-30.5-220.4-30.5-220.4-30.5-220.4z M-16.33-220.4L-16.33-220.4L-16.33-220.4z M-30.5-220.4L-30.5-220.4L-30.5-220.4z"/>
	</g>
	<g>
		<path class="st0" d="M-24.29-182.38c-0.08,0-0.17-0.02-0.25-0.07c-0.24-0.14-0.32-0.44-0.18-0.68l0.8-1.39
			c0.09-0.16,0.25-0.25,0.43-0.25h0c0.18,0,0.34,0.09,0.43,0.25l0.81,1.39c0.14,0.24,0.06,0.54-0.18,0.68
			c-0.24,0.14-0.54,0.06-0.68-0.18l-0.38-0.64l-0.37,0.64C-23.95-182.47-24.12-182.38-24.29-182.38z"/>
	</g>
	<g>
		<path class="st0" d="M-23.49-185.6c-0.28,0-0.5-0.22-0.5-0.5v-24.06c0-0.28,0.22-0.5,0.5-0.5s0.5,0.22,0.5,0.5v24.06
			C-22.99-185.83-23.21-185.6-23.49-185.6z"/>
	</g>
</g>
<g>
	<g>
		<path class="st0" d="M60.18-181.79H49.03c-0.13,0-0.26-0.05-0.36-0.15c-0.09-0.1-0.15-0.23-0.14-0.36l0.93-37.92
			c0.01-0.27,0.23-0.49,0.5-0.49c0,0,0.01,0,0.01,0c0.28,0.01,0.49,0.24,0.49,0.51l-0.91,37.4h10.17l1.39-28.68
			c0.01-0.28,0.21-0.5,0.52-0.47c0.28,0.01,0.49,0.25,0.47,0.52l-1.41,29.16C60.67-182,60.45-181.79,60.18-181.79z"/>
	</g>
	<g>
		<path class="st0" d="M74.17-181.79H63.01c-0.27,0-0.49-0.21-0.5-0.48l-1.41-29.16c-0.01-0.28,0.2-0.51,0.47-0.52
			c0.31-0.03,0.51,0.2,0.52,0.47l1.39,28.68h10.17l-0.91-37.4c-0.01-0.28,0.21-0.51,0.49-0.51c0,0,0.01,0,0.01,0
			c0.27,0,0.49,0.22,0.5,0.49l0.93,37.92c0,0.13-0.05,0.27-0.14,0.36C74.43-181.85,74.3-181.79,74.17-181.79z"/>
	</g>
	<g>
		<path class="st0" d="M73.24-219.88H49.95c-0.28,0-0.5-0.22-0.5-0.5c0-1.11,0.91-2.02,2.02-2.02h20.25c1.11,0,2.02,0.91,2.02,2.02
			C73.74-220.11,73.52-219.88,73.24-219.88z M50.58-220.88h22.02c-0.18-0.31-0.51-0.52-0.89-0.52H51.47
			C51.09-221.4,50.76-221.19,50.58-220.88z"/>
	</g>
	<g>
		<path class="st0" d="M61.6-212.9c-0.28,0-0.5-0.22-0.5-0.5v-4.98c0-0.28,0.22-0.5,0.5-0.5s0.5,0.22,0.5,0.5v4.98
			C62.1-213.12,61.87-212.9,61.6-212.9z"/>
	</g>
	<g>
		<path class="st0" d="M49.71-209.82c-0.14,0-0.28-0.06-0.38-0.18c-0.18-0.21-0.15-0.53,0.06-0.7c4.48-3.8,3.78-9.56,3.77-9.61
			c-0.04-0.27,0.16-0.52,0.43-0.56c0.27-0.04,0.52,0.16,0.56,0.43c0.04,0.26,0.79,6.35-4.12,10.51
			C49.94-209.86,49.83-209.82,49.71-209.82z"/>
	</g>
	<g>
		<path class="st0" d="M73.48-209.82c-0.11,0-0.23-0.04-0.32-0.12c-4.9-4.16-4.15-10.25-4.12-10.51c0.04-0.27,0.29-0.47,0.56-0.43
			c0.27,0.04,0.47,0.29,0.43,0.56c-0.01,0.06-0.7,5.81,3.77,9.61c0.21,0.18,0.24,0.49,0.06,0.7
			C73.76-209.88,73.62-209.82,73.48-209.82z"/>
	</g>
</g>
<g>
	<g>
		<g>
			<path class="st0" d="M-181.56,102.05h-24.79c-0.28,0-0.5-0.22-0.5-0.5V76.81c0-0.28,0.22-0.5,0.5-0.5s0.5,0.22,0.5,0.5v24.25
				h23.79V76.81c0-0.28,0.22-0.5,0.5-0.5s0.5,0.22,0.5,0.5v24.75C-181.06,101.83-181.28,102.05-181.56,102.05z"/>
		</g>
		<g>
			<path class="st0" d="M-181.36,84.29l-0.39-0.92l6.52-2.78c-3.01-13.46-10.13-14.24-11.51-14.26c-1.78,2.35-4.39,3.69-7.21,3.69
				c-2.82,0-5.44-1.34-7.21-3.69c-1.38,0.02-8.5,0.8-11.51,14.26l6.52,2.78l-0.39,0.92l-6.9-2.94c-0.22-0.09-0.34-0.33-0.29-0.56
				c3.4-15.93,12.48-15.47,12.87-15.44c0.15,0.01,0.28,0.09,0.37,0.21c1.59,2.21,3.98,3.48,6.55,3.48s4.96-1.27,6.55-3.48
				c0.09-0.12,0.22-0.2,0.37-0.21c0.39-0.03,9.46-0.48,12.87,15.44c0.05,0.23-0.07,0.47-0.29,0.56L-181.36,84.29z"/>
		</g>
	</g>
	<g>
		<path class="st0" d="M-193.95,80.73c-8.19,0-12.37-1.22-12.54-1.27l0.29-0.96c0.04,0.01,4.23,1.23,12.25,1.23
			c8.03,0,12.21-1.22,12.25-1.23l0.29,0.96C-181.59,79.51-185.76,80.73-193.95,80.73z"/>
	</g>
	<g>
		<path class="st0" d="M-193.95,88.51c-8.19,0-12.37-1.22-12.54-1.27l0.29-0.96c0.04,0.01,4.23,1.23,12.25,1.23
			c8.03,0,12.21-1.22,12.25-1.23l0.29,0.96C-181.59,87.29-185.76,88.51-193.95,88.51z"/>
	</g>
</g>
<g>
	<path class="st0" d="M146.68-181.21c-5,0-10.06-1.08-10.06-3.13c0-9.34,1.81-16.03,2.89-19.18c0.45-1.32,0.42-2.79-0.08-4.14
		c-0.19-0.5-0.35-1.05-0.49-1.63c-0.41,2.6-0.96,4.83-1.68,5.12c-0.19,0.08-0.63,0.25-2.49-0.9c-0.49-0.3-2.93-1.85-3.01-2.72
		c-0.05-0.57,0.19-1.22,0.49-2.04c0.24-0.65,0.51-1.4,0.71-2.28c0.14-0.64,0.26-1.21,0.37-1.75c0.3-1.48,0.54-2.65,1.08-4.1
		c1.86-5.04,6.79-5.06,6.77-5.03c0.19,0,0.35,0.1,0.44,0.27c1.24,2.38,3.08,3.74,5.04,3.74c1.97,0,3.81-1.36,5.04-3.74
		c0.09-0.16,0.25-0.27,0.44-0.27c0.01-0.03,4.91-0.01,6.77,5.03c0.54,1.45,0.78,2.62,1.08,4.09c0.11,0.54,0.23,1.11,0.37,1.76
		c0.2,0.88,0.47,1.63,0.71,2.28c0.3,0.82,0.54,1.47,0.49,2.04c-0.08,0.87-2.53,2.42-3.02,2.73c-1.85,1.14-2.29,0.97-2.48,0.89
		c-0.72-0.29-1.27-2.52-1.68-5.12c-0.14,0.58-0.3,1.12-0.49,1.63c-0.5,1.35-0.53,2.82-0.08,4.14c1.08,3.15,2.89,9.83,2.89,19.18
		C156.74-182.29,151.68-181.21,146.68-181.21z M138.93-213.6c0,0,0.01,0,0.01,0c0.26,0.01,0.47,0.21,0.49,0.47
		c0.11,2,0.43,3.73,0.95,5.12c0.58,1.57,0.61,3.27,0.08,4.81c-1.06,3.1-2.84,9.66-2.84,18.86c0,0.74,3.11,2.13,9.06,2.13
		s9.06-1.39,9.06-2.13c0-9.2-1.78-15.76-2.84-18.86c-0.53-1.53-0.5-3.24,0.08-4.81c0.52-1.39,0.84-3.11,0.95-5.12
		c0.01-0.26,0.23-0.47,0.49-0.47c0.26,0.01,0.48,0.19,0.51,0.45c0.36,3.42,1.03,7.37,1.53,8.03c0.8-0.13,3.87-2.21,4.15-2.82
		c0.02-0.28-0.2-0.87-0.44-1.54c-0.24-0.65-0.53-1.46-0.74-2.41c-0.15-0.65-0.27-1.23-0.38-1.77c-0.3-1.43-0.53-2.57-1.04-3.94
		c-1.38-3.72-4.56-4.28-5.54-4.36c-1.42,2.54-3.51,3.99-5.78,3.99c-2.27,0-4.36-1.45-5.78-3.99c-0.98,0.08-4.17,0.64-5.54,4.36
		c-0.51,1.38-0.75,2.52-1.04,3.96c-0.11,0.54-0.23,1.12-0.38,1.76c-0.21,0.95-0.51,1.75-0.74,2.4c-0.25,0.68-0.46,1.26-0.43,1.61
		c0.26,0.55,3.33,2.62,4.13,2.75c0.5-0.66,1.18-4.61,1.53-8.03C138.46-213.41,138.67-213.6,138.93-213.6z"/>
</g>
<g>
	<g>
		<path class="st0" d="M228.45-186.78c-0.03,0-0.05,0-0.08-0.01c-0.3-0.05-0.61-0.11-0.91-0.18c-0.83-0.19-1.62-0.36-2.36-0.07
			c-0.26,0.1-0.55-0.02-0.65-0.28c-0.1-0.26,0.02-0.55,0.28-0.65c1.02-0.41,2.04-0.18,2.95,0.02c0.28,0.06,0.56,0.13,0.84,0.17
			c0.27,0.04,0.46,0.3,0.42,0.57C228.91-186.96,228.69-186.78,228.45-186.78z"/>
	</g>
	<g>
		<path class="st0" d="M218.05-188.57c-0.04,0-0.08,0-0.12-0.02c-2.72-0.7-3.99-1.49-3.99-2.48c0-0.06,0.01-0.13,0.04-0.19
			c3.32-8.25,4.79-14.53,5.86-19.12c0.54-2.3,0.97-4.12,1.48-5.58c0.09-0.26,0.38-0.4,0.64-0.31c0.26,0.09,0.4,0.38,0.31,0.64
			c-0.49,1.41-0.92,3.2-1.45,5.48c-1.08,4.59-2.55,10.88-5.86,19.13c0.1,0.24,0.8,0.83,3.22,1.45c0.27,0.07,0.43,0.34,0.36,0.61
			C218.48-188.72,218.27-188.57,218.05-188.57z"/>
	</g>
	<g>
		<path class="st0" d="M224.25-185.83c-0.07,0-7.01-0.14-7.01-2.46c0-0.06,0.01-0.13,0.04-0.19c3.8-9.48,5.14-17.2,5.78-20.91
			l0.09-0.5c0.05-0.27,0.31-0.46,0.58-0.41c0.27,0.05,0.45,0.31,0.41,0.58l-0.09,0.5c-0.65,3.73-1.99,11.48-5.79,21
			c0.22,0.68,3.58,1.33,5.74,1.38c0.31-0.51,1.17-2.28,1.76-6.7c0.04-0.27,0.29-0.47,0.56-0.43c0.27,0.04,0.47,0.29,0.43,0.56
			c-0.77,5.76-1.98,7.25-2.12,7.41C224.53-185.89,224.4-185.83,224.25-185.83z"/>
	</g>
	<g>
		<path class="st0" d="M241.73-215.28h-19.94c-0.28,0-0.5-0.22-0.5-0.5v-2.08c0-0.28,0.22-0.5,0.5-0.5h19.94
			c0.28,0,0.5,0.22,0.5,0.5v2.08C242.23-215.51,242.01-215.28,241.73-215.28z M222.29-216.28h18.94v-1.08h-18.94V-216.28z"/>
	</g>
	<g>
		<path class="st0" d="M231.76-185.83h-2.33c-0.82,0-1.48-0.65-1.48-1.45c0.01-0.14,0.96-8.5,0.87-17.69c0-0.28,0.22-0.5,0.5-0.5
			c0,0,0,0,0,0c0.27,0,0.5,0.22,0.5,0.5c0.08,9.25-0.87,17.67-0.88,17.75c0,0.19,0.22,0.4,0.48,0.4h2.33c0.28,0,0.5,0.22,0.5,0.5
			S232.03-185.83,231.76-185.83z"/>
	</g>
	<g>
		<path class="st1" d="M239.88-209.8"/>
	</g>
	<g>
		<path class="st1" d="M231.76-186.33"/>
	</g>
	<g>
		<path class="st0" d="M235.06-186.78c-0.24,0-0.46-0.18-0.49-0.42c-0.04-0.27,0.14-0.53,0.42-0.57c0.28-0.04,0.56-0.11,0.84-0.17
			c0.9-0.2,1.92-0.43,2.95-0.02c0.26,0.1,0.38,0.39,0.28,0.65c-0.1,0.26-0.39,0.38-0.65,0.28c-0.73-0.29-1.52-0.12-2.36,0.07
			c-0.3,0.07-0.61,0.14-0.91,0.18C235.12-186.78,235.09-186.78,235.06-186.78z"/>
	</g>
	<g>
		<path class="st0" d="M245.47-188.57c-0.22,0-0.43-0.15-0.48-0.38c-0.07-0.27,0.09-0.54,0.36-0.61c2.42-0.63,3.12-1.21,3.22-1.45
			c-3.31-8.26-4.78-14.54-5.86-19.14c-0.53-2.27-0.95-4.07-1.45-5.47c-0.09-0.26,0.04-0.55,0.31-0.64c0.26-0.09,0.55,0.05,0.64,0.31
			c0.51,1.46,0.94,3.28,1.48,5.58c1.07,4.59,2.54,10.87,5.86,19.12c0.02,0.06,0.04,0.12,0.04,0.19c0,0.99-1.27,1.78-3.99,2.48
			C245.55-188.57,245.51-188.57,245.47-188.57z"/>
	</g>
	<g>
		<path class="st0" d="M239.26-185.83c-0.14,0-0.28-0.06-0.37-0.17c-0.14-0.15-1.35-1.65-2.11-7.41c-0.04-0.27,0.16-0.53,0.43-0.56
			c0.26-0.04,0.53,0.16,0.56,0.43c0.59,4.42,1.45,6.18,1.76,6.7c2.16-0.05,5.52-0.7,5.74-1.38c-3.81-9.53-5.15-17.28-5.79-21.01
			l-0.08-0.49c-0.05-0.27,0.13-0.53,0.41-0.58c0.27-0.06,0.53,0.13,0.58,0.41l0.08,0.49c0.64,3.71,1.98,11.44,5.78,20.93
			c0.02,0.06,0.04,0.12,0.04,0.19C246.28-185.97,239.33-185.83,239.26-185.83z"/>
	</g>
	<g>
		<path class="st0" d="M234.09-185.83h-2.33c-0.28,0-0.5-0.22-0.5-0.5s0.22-0.5,0.5-0.5h2.33c0.26,0,0.48-0.2,0.48-0.45
			c-0.01-0.03-0.96-8.45-0.87-17.7c0-0.27,0.23-0.5,0.5-0.5c0,0,0,0,0,0c0.28,0,0.5,0.23,0.5,0.5c-0.08,9.18,0.86,17.55,0.87,17.63
			C235.57-186.48,234.9-185.83,234.09-185.83z"/>
	</g>
	<g>
		<path class="st1" d="M231.76-186.33"/>
	</g>
</g>
<g>
	<g>
		<path class="st0" d="M331.66-192.1c-9.96,0-13.75-10.36-13.75-12.17c0-1.09-0.91-1.19-1.09-1.2c-0.14,0.01-1.04,0.11-1.04,1.2
			c0,1.81-3.79,12.17-13.75,12.17c-4.25,0-9.56-2.04-10.77-11.75c-0.02-0.17-0.04-0.29-0.05-0.36c-0.12-0.6-0.81-0.75-0.84-0.76
			c-0.23-0.05-0.4-0.25-0.4-0.49v-3.8c0-0.19,0.11-0.36,0.27-0.45c8.01-4.09,19.46-2.05,22.67-0.54c2.55,1.2,3.83,1.01,3.85,1.01
			c0.06-0.01,0.12-0.01,0.18,0c0,0,1.29,0.19,3.84-1.01c3.21-1.51,14.66-3.56,22.67,0.54c0.17,0.09,0.27,0.26,0.27,0.45v3.8
			c0,0.24-0.17,0.44-0.4,0.49c-0.03,0.01-0.71,0.16-0.83,0.76c-0.01,0.07-0.03,0.19-0.05,0.37
			C341.22-194.14,335.9-192.1,331.66-192.1z M316.82-206.47c0.75,0.03,2.08,0.52,2.08,2.2c0,1.66,3.52,11.17,12.75,11.17
			c3.84,0,8.66-1.89,9.78-10.87c0.03-0.21,0.04-0.36,0.06-0.44c0.17-0.83,0.79-1.23,1.22-1.41v-3.13
			c-7.59-3.7-18.57-1.77-21.52-0.39c-2.54,1.19-3.97,1.15-4.36,1.1c-0.38,0.04-1.81,0.09-4.36-1.1c-2.94-1.38-13.93-3.31-21.52,0.39
			v3.13c0.42,0.18,1.05,0.58,1.22,1.41c0.02,0.08,0.04,0.23,0.06,0.44c1.12,8.98,5.93,10.87,9.78,10.87
			c9.24,0,12.75-9.51,12.75-11.17C314.77-205.95,316.11-206.44,316.82-206.47z"/>
	</g>
	<g>
		<path class="st0" d="M331.66-193.9c-8.81,0-11.88-9.3-11.95-10.36c0-1.63,0.48-3.72,1.83-4.35c1.44-0.68,5.76-1.68,10.48-1.68
			c3.26,0,6.19,0.46,8.69,1.36c0.73,0.26,1.21,0.97,1.21,1.77c0,0.49-0.19,0.95-0.53,1.3c-0.35,0.36-0.58,0.8-0.67,1.3
			c-0.02,0.09-0.04,0.26-0.07,0.5C339.8-197.32,336.78-193.9,331.66-193.9z M332.01-209.29c-4.56,0-8.69,0.94-10.05,1.58
			c-0.82,0.39-1.25,2.01-1.26,3.42c0.06,0.93,2.88,9.39,10.96,9.39c4.53,0,7.22-3.13,7.99-9.29c0.03-0.27,0.06-0.46,0.08-0.57
			c0.14-0.69,0.45-1.29,0.93-1.79c0.16-0.17,0.25-0.39,0.25-0.61c0-0.38-0.22-0.71-0.55-0.83
			C338-208.84,335.11-209.29,332.01-209.29z M302.02-193.9c-5.12,0-8.14-3.42-8.98-10.17c-0.03-0.23-0.05-0.4-0.07-0.49
			c-0.1-0.5-0.33-0.94-0.67-1.3c-0.34-0.35-0.53-0.82-0.53-1.3c0-0.79,0.49-1.5,1.21-1.77c2.5-0.9,5.43-1.36,8.69-1.36
			c4.71,0,9.04,1,10.48,1.68c1.35,0.63,1.83,2.74,1.83,4.34C313.9-203.18,310.82-193.9,302.02-193.9z M301.67-209.29
			c-3.1,0-5.99,0.45-8.35,1.3c-0.33,0.12-0.55,0.45-0.55,0.83c0,0.23,0.09,0.44,0.25,0.61c0.48,0.5,0.79,1.11,0.93,1.79
			c0.02,0.1,0.05,0.3,0.08,0.57c0.77,6.16,3.46,9.29,7.99,9.29c8.08,0,10.89-8.44,10.96-9.4c0-1.38-0.43-3.02-1.26-3.41
			C310.36-208.35,306.23-209.29,301.67-209.29z"/>
	</g>
</g>
<g>
	<g>
		<path class="st0" d="M401.92-200.57c-0.11,0-0.22-0.04-0.31-0.1l-7.97-6.18c-0.16-0.12-0.23-0.33-0.18-0.52l0.93-3.54l-2.59-2.59
			c-0.16-0.16-0.19-0.4-0.08-0.6l2.8-5.06l0.88,0.48l-2.61,4.73l2.53,2.53c0.13,0.13,0.18,0.31,0.13,0.48l-0.92,3.5l7.4,5.74
			l7.4-5.74l-0.92-3.5c-0.05-0.17,0-0.36,0.13-0.48l2.53-2.53l-2.61-4.73l0.88-0.48l2.8,5.06c0.11,0.2,0.07,0.44-0.08,0.6
			l-2.59,2.59l0.94,3.54c0.05,0.19-0.02,0.4-0.18,0.52l-7.97,6.18C402.13-200.61,402.03-200.57,401.92-200.57z"/>
	</g>
	<g>
		<g>
			<path class="st0" d="M399.47-214.52c-0.12,0-0.24-0.04-0.33-0.12l-4.51-3.9c-0.14-0.12-0.2-0.31-0.16-0.49l0.72-3.23
				c0.04-0.16,0.15-0.29,0.3-0.35c0.15-0.06,0.32-0.05,0.46,0.04c1.19,0.77,4.58,2.76,5.97,2.76c0.18,0,0.34,0.09,0.43,0.25
				c0.09,0.15,0.09,0.34,0,0.5l-2.45,4.29c-0.07,0.13-0.2,0.22-0.35,0.25C399.53-214.53,399.5-214.52,399.47-214.52z M395.51-219.11
				l3.83,3.31l1.78-3.13c-1.64-0.39-3.98-1.74-5.11-2.43L395.51-219.11z"/>
		</g>
	</g>
	<g>
		<g>
			<path class="st0" d="M404.37-214.52c-0.03,0-0.06,0-0.08-0.01c-0.15-0.03-0.28-0.12-0.35-0.25l-2.45-4.29
				c-0.09-0.16-0.09-0.34,0-0.5c0.09-0.15,0.25-0.25,0.43-0.25c1.39,0,4.78-1.99,5.97-2.76c0.14-0.09,0.31-0.1,0.46-0.04
				c0.15,0.06,0.26,0.19,0.3,0.35l0.72,3.23c0.04,0.18-0.02,0.37-0.16,0.49l-4.51,3.9C404.61-214.57,404.49-214.52,404.37-214.52z
				 M402.72-218.93l1.78,3.13l3.83-3.31l-0.5-2.25C406.71-220.67,404.36-219.32,402.72-218.93z"/>
		</g>
	</g>
	<g>
		<path class="st0" d="M408.15-221.66c-0.18,0-0.33-0.09-0.42-0.23c-0.19-0.11-1.22-0.52-5.81-0.52c-4.6,0-5.62,0.41-5.81,0.52
			c-0.09,0.14-0.25,0.23-0.42,0.23c-0.28,0-0.5-0.22-0.5-0.5c0-0.41,0-1.25,6.74-1.25c6.73,0,6.73,0.85,6.73,1.25
			C408.65-221.88,408.43-221.66,408.15-221.66z M396.18-222.15L396.18-222.15L396.18-222.15z M407.65-222.15L407.65-222.15
			L407.65-222.15z M407.65-222.15L407.65-222.15L407.65-222.15z M396.18-222.15L396.18-222.15L396.18-222.15z M396.18-222.15
			L396.18-222.15L396.18-222.15z M407.65-222.15L407.65-222.15L407.65-222.15z"/>
	</g>
	<g>
		<path class="st0" d="M404.61-208.16c-0.22,0-0.42-0.15-0.48-0.37l-1.64-6h-1.12l-1.66,6c-0.07,0.27-0.35,0.42-0.62,0.35
			c-0.27-0.07-0.42-0.35-0.35-0.62l1.76-6.36c0.06-0.22,0.26-0.37,0.48-0.37h1.88c0.23,0,0.42,0.15,0.48,0.37l1.74,6.36
			c0.07,0.27-0.08,0.54-0.35,0.61C404.7-208.17,404.65-208.16,404.61-208.16z"/>
	</g>
	<g>
		<path class="st0" d="M400.98-214.53c-0.1,0-0.2-0.03-0.29-0.1c-0.31-0.23-0.83-0.89-0.83-1.95c0-0.28,0.22-0.5,0.5-0.5
			s0.5,0.22,0.5,0.5c0,0.8,0.41,1.13,0.43,1.15c0.21,0.17,0.25,0.48,0.09,0.7C401.28-214.59,401.13-214.53,400.98-214.53z"/>
	</g>
	<g>
		<path class="st0" d="M402.86-214.52c-0.15,0-0.3-0.07-0.4-0.2c-0.16-0.22-0.12-0.53,0.1-0.69c0.03-0.02,0.43-0.37,0.43-1.15
			c0-0.28,0.22-0.5,0.5-0.5s0.5,0.22,0.5,0.5c0,1.06-0.52,1.72-0.83,1.95C403.06-214.56,402.96-214.52,402.86-214.52z"/>
	</g>
	<g>
		<path class="st0" d="M413.62-180.79h-11c-0.23,0-0.42-0.15-0.48-0.37l-0.22-0.83l-0.22,0.83c-0.06,0.22-0.26,0.37-0.48,0.37h-11
			c-0.13,0-0.26-0.05-0.36-0.15c-0.09-0.09-0.15-0.22-0.14-0.36l0.04-4.98h-5.28c-0.28,0-0.5-0.22-0.5-0.5v-18.83
			c0-3.42,0.97-6.59,2.79-9.18c3.67-5.22,8.08-4.67,8.27-4.65c0.14,0.02,0.26,0.09,0.34,0.2c1.37,1.9,5.19,12.73,6.54,16.62
			c1.35-3.89,5.19-14.72,6.55-16.62c0.08-0.11,0.2-0.18,0.34-0.2c0.18-0.02,4.59-0.57,8.27,4.65c1.83,2.58,2.79,5.76,2.79,9.18
			v18.83c0,0.28-0.22,0.5-0.5,0.5h-5.28l0.04,4.98c0,0.13-0.05,0.26-0.14,0.36C413.88-180.84,413.76-180.79,413.62-180.79z
			 M403.01-181.79h10.11l-0.13-14.37l0.08-11.07c0-0.27,0.23-0.5,0.5-0.5h0c0.28,0,0.5,0.22,0.5,0.5l0.05,19.95h4.74v-18.33
			c0-3.21-0.9-6.19-2.61-8.6c-2.9-4.12-6.22-4.3-7.1-4.25c-1.35,2.2-4.98,12.33-6.77,17.54c-0.07,0.2-0.26,0.34-0.47,0.34l0,0
			c-0.21,0-0.4-0.14-0.47-0.34c-1.78-5.21-5.41-15.35-6.76-17.54c-0.87-0.03-4.2,0.12-7.1,4.25c-1.71,2.42-2.61,5.39-2.61,8.6v18.33
			h4.79l0.08-8.89l-0.08-11.05l1-0.01l0.08,11.06l-0.13,14.37h10.11l0.6-2.28c0.06-0.22,0.26-0.37,0.48-0.37h0
			c0.23,0,0.42,0.15,0.48,0.37L403.01-181.79z"/>
	</g>
	<g>
		<path class="st0" d="M401.92-186.61c-0.28,0-0.5-0.22-0.5-0.5l0-11.26c0-0.28,0.22-0.5,0.5-0.5s0.5,0.22,0.5,0.5l0,11.26
			C402.42-186.84,402.2-186.61,401.92-186.61z"/>
	</g>
</g>
<g>
	<g>
		<path class="st0" d="M487-178.07c-4.84,0-13.89-1.04-13.89-3.55c0-9.65,3.23-14.2,5.59-17.51c0.89-1.25,1.66-2.33,1.99-3.38
			c0.34-1.07,0-2.8-0.74-3.77c-0.99-1.29-2.21-3.63-2.42-7.45c0-0.01,0-0.02,0-0.03c0-0.11,0.06-2.66,4.99-2.66
			c2.29,0,3.9,0.65,4.49,0.94c0.59-0.29,2.2-0.94,4.49-0.94c4.93,0,4.99,2.55,4.99,2.66c-0.21,3.85-1.44,6.19-2.43,7.48
			c-0.75,0.97-1.09,2.7-0.74,3.77c0.34,1.05,1.1,2.13,1.99,3.38c2.36,3.32,5.59,7.86,5.59,17.51
			C500.89-179.11,491.84-178.07,487-178.07z M478.52-213.77c0.2,3.55,1.32,5.7,2.22,6.87c0.95,1.24,1.35,3.3,0.9,4.69
			c-0.38,1.2-1.19,2.34-2.13,3.66c-2.28,3.21-5.4,7.6-5.4,16.93c0,0.96,6.02,2.55,12.89,2.55c6.86,0,12.89-1.59,12.89-2.55
			c0-9.33-3.12-13.73-5.4-16.93c-0.94-1.32-1.75-2.46-2.13-3.66c-0.44-1.39-0.05-3.45,0.9-4.69c0.9-1.18,2.02-3.33,2.22-6.9
			c-0.03-0.54-0.9-1.63-3.99-1.63c-2.61,0-4.22,0.92-4.24,0.93c-0.15,0.09-0.35,0.09-0.5,0c-0.02-0.01-1.65-0.93-4.24-0.93
			C479.45-215.43,478.57-214.35,478.52-213.77z"/>
	</g>
	<g>
		<path class="st0" d="M495.41-215.07l-0.95-0.31c0.18-0.56,0.52-2.17-0.06-2.98c-0.25-0.35-0.67-0.52-1.28-0.52
			c-0.36-0.01-3.47-0.13-4.39-1.74c-0.58-1.02-0.64-2.37-0.55-3.47h-2.37c0.09,1.1,0.03,2.44-0.55,3.47
			c-0.92,1.61-4.02,1.73-4.37,1.74c-0.62,0-1.04,0.17-1.29,0.52c-0.58,0.81-0.24,2.42-0.06,2.97l-0.95,0.31
			c-0.03-0.1-0.8-2.49,0.2-3.87c0.45-0.62,1.15-0.93,2.09-0.93c0.73-0.02,2.98-0.29,3.52-1.23c0.58-1.02,0.48-2.57,0.37-3.4
			c-0.02-0.14,0.02-0.29,0.12-0.4c0.09-0.11,0.23-0.17,0.38-0.17h3.48c0.14,0,0.28,0.06,0.38,0.17c0.1,0.11,0.14,0.25,0.12,0.4
			c-0.11,0.84-0.21,2.39,0.37,3.4c0.54,0.95,2.79,1.21,3.53,1.23l0,0c0.92,0,1.62,0.31,2.07,0.93
			C496.21-217.56,495.44-215.17,495.41-215.07z"/>
	</g>
</g>
<g>
	<g id="XMLID_00000124866110930460616790000010123756888003846300_">
		<g>
			<g>
				<path class="st2" d="M-48.94-85.27l0.18,20.83h-10.06l-0.81-1.39v-1.83v-24.07L-61-92.79l1.45-5.72l1.45,5.72l7.01-5.24
					l-0.46-2.06c2.78,0.39,9.51,2.05,10.23,8.95c0.69,6.69,1.44,25.98,1.44,25.98c0,0.4-0.33,0.72-0.73,0.72h-4.86
					c-0.4,0-0.72-0.32-0.72-0.72L-48.94-85.27z"/>
			</g>
			<g>
				<path class="st3" d="M-51.55-100.09l0.46,2.06l-7.01,5.24l-1.45-5.72c2.33,0,7.58-3.45,7.58-3.45l0.35,1.55L-51.55-100.09z"/>
			</g>
			<g>
				<path class="st4" d="M-59.55-102.88c7.58,0,7.58,0.92,7.58,0.92s-5.25,3.45-7.58,3.45c-2.24,0-7.59-3.45-7.59-3.45
					S-67.14-102.88-59.55-102.88z"/>
			</g>
			<g>
				<path class="st3" d="M-59.55-98.51L-61-92.79l-7.02-5.24l0.46-2.08l0.08-0.33l0.34-1.52C-67.14-101.96-61.79-98.51-59.55-98.51z
					"/>
			</g>
			<g>
				<path class="st2" d="M-70.32-85.27l-2.74,20.11c0,0.4-0.32,0.72-0.72,0.72h-4.87c-0.4,0-0.72-0.32-0.72-0.72
					c0,0,0.74-19.29,1.44-25.98c0.73-7.02,7.68-8.62,10.37-8.97l-0.46,2.08l7.02,5.24l1.37,1.06v24.07v1.83l-0.8,1.39H-70.5
					L-70.32-85.27z"/>
			</g>
		</g>
		<g>
			<g>
				<path class="st5" d="M-48.94-84.77c-0.01,0-0.01,0-0.02,0c-0.28-0.01-0.49-0.25-0.48-0.52l0.18-4c0.01-0.27,0.23-0.48,0.5-0.48
					c0.01,0,0.01,0,0.02,0c0.28,0.01,0.49,0.25,0.48,0.52l-0.18,4C-48.45-84.98-48.67-84.77-48.94-84.77z"/>
			</g>
			<g>
				<path class="st5" d="M-70.32-84.77c-0.27,0-0.49-0.21-0.5-0.48l-0.18-4c-0.01-0.28,0.2-0.51,0.48-0.52
					c0.3-0.05,0.51,0.2,0.52,0.48l0.18,4c0.01,0.28-0.2,0.51-0.48,0.52C-70.31-84.77-70.31-84.77-70.32-84.77z"/>
			</g>
			<g>
				<path class="st5" d="M-60.43-63.94H-70.5c-0.13,0-0.26-0.05-0.36-0.15c-0.09-0.09-0.15-0.22-0.14-0.36l0.11-12.95l-1.68,12.31
					c0,0.61-0.54,1.15-1.21,1.15h-4.87c-0.67,0-1.22-0.55-1.22-1.22c0.01-0.21,0.75-19.4,1.44-26.03c0.78-7.53,8.47-9.11,10.8-9.42
					c0.26-0.04,0.52,0.16,0.56,0.43c0.04,0.27-0.16,0.52-0.43,0.56c-2.76,0.36-9.25,1.91-9.94,8.53c-0.69,6.6-1.43,25.75-1.44,25.95
					c0,0.1,0.1,0.2,0.22,0.2h4.87c0.12,0,0.22-0.09,0.22-0.22l2.75-20.18c0.04-0.26,0.25-0.45,0.53-0.43
					c0.26,0.02,0.47,0.24,0.46,0.5L-70-64.94h9.57c0.28,0,0.5,0.22,0.5,0.5S-60.15-63.94-60.43-63.94z"/>
			</g>
			<g>
				<path class="st5" d="M-40.61-63.94h-4.86c-0.67,0-1.22-0.55-1.22-1.22l-1.68-12.28l0.11,13c0,0.13-0.05,0.26-0.14,0.36
					c-0.09,0.09-0.22,0.15-0.36,0.15h-10.06c-0.28,0-0.5-0.22-0.5-0.5s0.22-0.5,0.5-0.5h9.56l-0.18-20.33c0-0.26,0.2-0.48,0.46-0.5
					c0.29-0.02,0.5,0.17,0.53,0.43l2.75,20.11c0,0.19,0.1,0.29,0.22,0.29h4.86c0.13,0,0.23-0.1,0.23-0.22
					c-0.01-0.17-0.76-19.33-1.44-25.93c-0.68-6.53-7.08-8.12-9.8-8.51c-0.27-0.04-0.46-0.29-0.43-0.56c0.04-0.27,0.3-0.46,0.56-0.43
					c2.95,0.41,9.9,2.16,10.66,9.39c0.68,6.63,1.44,25.82,1.44,26.01C-39.38-64.49-39.93-63.94-40.61-63.94z"/>
			</g>
			<g>
				<path class="st5" d="M-61-92.29c-0.11,0-0.21-0.03-0.3-0.1l-7.02-5.24c-0.16-0.12-0.23-0.32-0.19-0.51l0.88-3.93
					c0.04-0.16,0.15-0.29,0.3-0.35c0.15-0.06,0.32-0.05,0.46,0.04c1.46,0.94,5.6,3.37,7.32,3.37c0.15,0,0.3,0.07,0.39,0.19
					c0.09,0.12,0.13,0.28,0.09,0.43l-1.45,5.72c-0.04,0.16-0.16,0.29-0.32,0.35C-60.89-92.3-60.94-92.29-61-92.29z M-67.46-98.24
					l6.16,4.6l1.12-4.43c-2.03-0.37-5.29-2.26-6.63-3.09L-67.46-98.24z"/>
			</g>
			<g>
				<path class="st5" d="M-58.1-92.29c-0.06,0-0.11-0.01-0.17-0.03c-0.16-0.06-0.28-0.19-0.32-0.35l-1.45-5.72
					c-0.04-0.15,0-0.31,0.09-0.43c0.09-0.12,0.24-0.19,0.39-0.19c1.79,0,5.88-2.43,7.3-3.37c0.14-0.09,0.31-0.11,0.46-0.05
					c0.15,0.06,0.26,0.19,0.3,0.35l0.88,3.93c0.04,0.19-0.03,0.39-0.19,0.51l-7.01,5.24C-57.89-92.33-57.99-92.29-58.1-92.29z
					 M-58.92-98.07l1.12,4.43l6.15-4.6l-0.39-1.74c0,0,0,0,0,0l-0.26-1.17C-53.64-100.33-56.85-98.44-58.92-98.07z"/>
			</g>
			<g>
				<path class="st5" d="M-51.97-101.46c-0.19,0-0.35-0.1-0.44-0.26c-0.19-0.12-1.38-0.66-7.14-0.66c-5.77,0-6.97,0.55-7.15,0.67
					c-0.09,0.15-0.25,0.25-0.44,0.25c-0.28,0-0.5-0.22-0.5-0.5c0-0.39,0-1.42,8.09-1.42c8.08,0,8.08,1.03,8.08,1.42
					C-51.47-101.69-51.69-101.46-51.97-101.46z M-66.64-101.95L-66.64-101.95L-66.64-101.95z M-52.47-101.95L-52.47-101.95
					L-52.47-101.95z M-66.64-101.96L-66.64-101.96L-66.64-101.96z M-52.47-101.96L-52.47-101.96L-52.47-101.96z M-66.64-101.96
					C-66.64-101.96-66.64-101.96-66.64-101.96S-66.64-101.96-66.64-101.96z M-52.47-101.96C-52.47-101.96-52.47-101.96-52.47-101.96
					S-52.47-101.96-52.47-101.96z M-66.64-101.96L-66.64-101.96L-66.64-101.96z M-52.47-101.96L-52.47-101.96L-52.47-101.96z
					 M-66.64-101.96C-66.64-101.96-66.64-101.96-66.64-101.96C-66.64-101.96-66.64-101.96-66.64-101.96z M-52.47-101.96
					C-52.47-101.96-52.47-101.96-52.47-101.96C-52.47-101.96-52.47-101.96-52.47-101.96z M-66.64-101.96L-66.64-101.96
					L-66.64-101.96z M-52.47-101.96L-52.47-101.96L-52.47-101.96z"/>
			</g>
			<g>
				<path class="st5" d="M-60.43-63.94c-0.08,0-0.17-0.02-0.25-0.07c-0.24-0.14-0.32-0.44-0.18-0.68l0.8-1.39
					c0.09-0.15,0.25-0.25,0.43-0.25h0c0.18,0,0.34,0.09,0.43,0.25l0.81,1.39c0.14,0.24,0.06,0.54-0.18,0.68
					c-0.24,0.14-0.54,0.06-0.68-0.18l-0.38-0.64L-60-64.19C-60.09-64.03-60.26-63.94-60.43-63.94z"/>
			</g>
			<g>
				<path class="st5" d="M-59.63-67.16c-0.28,0-0.5-0.22-0.5-0.5v-24.07c0-0.28,0.22-0.5,0.5-0.5s0.5,0.22,0.5,0.5v24.07
					C-59.13-67.39-59.35-67.16-59.63-67.16z"/>
			</g>
		</g>
	</g>
</g>
<g>
	<g id="XMLID_00000039815795290802621390000004350662339043329692_">
		<g>
			<g>
				<path class="st6" d="M24.95-114.48l0.68,28.03H14.48l-1.42-29.15v-1.95v-4.98v-2.01H21C21-124.54,20.2-118.51,24.95-114.48z"/>
			</g>
			<g>
				<path class="st7" d="M24.71-124.36l0.24,9.88C20.2-118.51,21-124.54,21-124.54h3.71V-124.36z"/>
			</g>
			<g>
				<path class="st8" d="M24.71-124.54H21h-7.94H5.13H1.42c0-0.84,0.68-1.52,1.52-1.52h20.25
					C24.03-126.06,24.71-125.38,24.71-124.54z"/>
			</g>
			<g>
				<path class="st6" d="M13.06-117.55v1.95l-1.41,29.15H0.5l0.68-28.03c4.75-4.03,3.95-10.06,3.95-10.06h7.93v2.01V-117.55z"/>
			</g>
			<g>
				<path class="st7" d="M5.13-124.54c0,0,0.8,6.03-3.95,10.06l0.24-9.88v-0.18H5.13z"/>
			</g>
		</g>
		<g>
			<g>
				<path class="st5" d="M11.65-85.95H0.5c-0.13,0-0.26-0.05-0.36-0.15C0.05-86.2,0-86.33,0-86.46l0.92-37.91
					c0.01-0.28,0.24-0.5,0.51-0.49c0.28,0.01,0.5,0.24,0.49,0.51l-0.91,37.4h10.16l1.39-28.67c0.01-0.28,0.21-0.51,0.52-0.47
					c0.28,0.01,0.49,0.25,0.47,0.52l-1.41,29.15C12.14-86.16,11.92-85.95,11.65-85.95z"/>
			</g>
			<g>
				<path class="st5" d="M25.63-85.95H14.48c-0.27,0-0.49-0.21-0.5-0.48l-1.42-29.15c-0.01-0.28,0.2-0.51,0.47-0.52
					c0.32-0.04,0.51,0.2,0.52,0.47l1.4,28.67h10.16l-0.91-37.4c-0.01-0.28,0.21-0.5,0.49-0.51c0.28,0,0.51,0.21,0.51,0.49
					l0.92,37.91c0,0.13-0.05,0.26-0.14,0.36C25.89-86,25.76-85.95,25.63-85.95z"/>
			</g>
			<g>
				<path class="st5" d="M24.71-124.04H1.42c-0.28,0-0.5-0.22-0.5-0.5c0-1.11,0.91-2.02,2.02-2.02h20.25c1.11,0,2.02,0.91,2.02,2.02
					C25.21-124.26,24.99-124.04,24.71-124.04z M2.05-125.04h22.03c-0.18-0.31-0.51-0.52-0.89-0.52H2.94
					C2.56-125.56,2.23-125.35,2.05-125.04z"/>
			</g>
			<g>
				<path class="st5" d="M13.06-117.05c-0.28,0-0.5-0.22-0.5-0.5v-4.98c0-0.28,0.22-0.5,0.5-0.5s0.5,0.22,0.5,0.5v4.98
					C13.56-117.27,13.34-117.05,13.06-117.05z"/>
			</g>
			<g>
				<path class="st5" d="M1.18-113.98c-0.14,0-0.28-0.06-0.38-0.18c-0.18-0.21-0.15-0.53,0.06-0.7c4.48-3.8,3.79-9.56,3.78-9.61
					c-0.04-0.27,0.16-0.53,0.43-0.56c0.28-0.04,0.52,0.16,0.56,0.43c0.03,0.26,0.78,6.35-4.12,10.51
					C1.41-114.02,1.29-113.98,1.18-113.98z"/>
			</g>
			<g>
				<path class="st5" d="M24.95-113.98c-0.11,0-0.23-0.04-0.32-0.12c-4.9-4.16-4.16-10.25-4.12-10.51c0.04-0.27,0.28-0.46,0.56-0.43
					c0.27,0.04,0.47,0.29,0.43,0.56c-0.01,0.06-0.7,5.82,3.78,9.61c0.21,0.18,0.24,0.49,0.06,0.7
					C25.23-114.04,25.09-113.98,24.95-113.98z"/>
			</g>
		</g>
	</g>
</g>
<g>
	<g id="XMLID_00000122703720665780452780000000848360573417250239_">
		<g>
			<g>
				<path class="st9" d="M22.61,30.28v4.85L15.7,32.2c3.36-15.69,12.35-15.05,12.35-15.05c1.6,2.24,4.12,3.68,6.95,3.68
					c2.84,0,5.35-1.44,6.96-3.68c0,0,8.99-0.64,12.34,15.05l-6.9,2.93v-4.85c0,0-4.18,1.25-12.4,1.25
					C26.79,31.53,22.61,30.28,22.61,30.28z"/>
			</g>
			<g>
				<path class="st9" d="M47.4,38.06v14.8H35H22.61v-14.8c0,0,4.18,1.25,12.39,1.25C43.22,39.31,47.4,38.06,47.4,38.06z"/>
			</g>
			<g>
				<path class="st10" d="M47.4,35.13v2.93c0,0-4.18,1.25-12.4,1.25c-8.21,0-12.39-1.25-12.39-1.25v-2.93v-4.85
					c0,0,4.18,1.25,12.39,1.25c8.22,0,12.4-1.25,12.4-1.25V35.13z"/>
			</g>
		</g>
		<g>
			<g>
				<path class="st5" d="M47.4,53.36H22.61c-0.28,0-0.5-0.22-0.5-0.5V28.11c0-0.28,0.22-0.5,0.5-0.5s0.5,0.22,0.5,0.5v24.25H46.9
					V28.11c0-0.28,0.22-0.5,0.5-0.5s0.5,0.22,0.5,0.5v24.75C47.9,53.13,47.68,53.36,47.4,53.36z"/>
			</g>
			<g>
				<path class="st5" d="M22.41,35.59l-6.91-2.93c-0.22-0.09-0.34-0.33-0.29-0.56c3.41-15.93,12.49-15.47,12.88-15.44
					c0.15,0.01,0.29,0.09,0.37,0.21c1.57,2.21,3.96,3.47,6.54,3.47c2.58,0,4.97-1.27,6.55-3.47c0.09-0.12,0.22-0.2,0.37-0.21
					c0.38-0.03,9.46-0.49,12.86,15.44c0.05,0.23-0.07,0.47-0.29,0.56l-6.9,2.93l-0.39-0.92l6.52-2.77
					C50.71,18.44,43.6,17.66,42.22,17.64c-1.78,2.34-4.39,3.68-7.22,3.68c-2.83,0-5.44-1.34-7.21-3.68
					c-1.38,0.02-8.5,0.8-11.52,14.26l6.53,2.77L22.41,35.59z"/>
			</g>
			<g>
				<path class="st5" d="M35,32.03c-8.19,0-12.36-1.22-12.53-1.27l0.29-0.96c0.04,0.01,4.22,1.23,12.25,1.23
					c8.03,0,12.21-1.22,12.26-1.23l0.29,0.96C47.37,30.81,43.2,32.03,35,32.03z"/>
			</g>
			<g>
				<path class="st5" d="M35,39.81c-8.19,0-12.36-1.22-12.53-1.27l0.29-0.96c0.04,0.01,4.22,1.23,12.25,1.23
					c8.03,0,12.21-1.22,12.26-1.23l0.29,0.96C47.37,38.59,43.2,39.81,35,39.81z"/>
			</g>
		</g>
	</g>
</g>
<g>
	<g>
		<path class="st11" d="M90.25-99.84c0,1.45,4.28,2.63,9.56,2.63c5.28,0,9.56-1.18,9.56-2.63c0-9.15-1.73-15.69-2.87-19.02
			c-0.5-1.44-0.45-3.04,0.08-4.47c0.42-1.14,0.84-2.84,0.98-5.27c0,0,0.84,8.07,1.84,8.47c0.68,0.27,4.75-2.52,4.82-3.2
			c0.08-0.85-0.74-2.18-1.18-4.17c-0.53-2.38-0.72-3.84-1.44-5.78c-1.75-4.73-6.3-4.7-6.3-4.7c-1.27,2.43-3.25,4.01-5.49,4.01
			c-2.24,0-4.22-1.57-5.49-4.01c0,0-4.55-0.03-6.3,4.7c-0.72,1.94-0.9,3.41-1.44,5.78c-0.45,1.99-1.26,3.32-1.18,4.17
			c0.06,0.68,4.13,3.47,4.82,3.2c1-0.4,1.84-8.47,1.84-8.47c0.13,2.43,0.55,4.13,0.98,5.27c0.53,1.43,0.58,3.03,0.08,4.47
			C91.98-115.53,90.25-108.99,90.25-99.84z"/>
	</g>
	<g>
		<path class="st5" d="M99.81-96.71c-5,0-10.06-1.08-10.06-3.13c0-9.34,1.81-16.03,2.89-19.18c0.45-1.32,0.42-2.79-0.08-4.14
			c-0.19-0.5-0.35-1.05-0.49-1.63c-0.41,2.6-0.96,4.83-1.68,5.12c-0.19,0.08-0.63,0.25-2.48-0.89c-0.49-0.3-2.94-1.85-3.01-2.73
			c-0.05-0.57,0.19-1.22,0.49-2.04c0.24-0.65,0.51-1.4,0.71-2.28c0.14-0.64,0.26-1.21,0.37-1.75c0.3-1.48,0.54-2.65,1.08-4.1
			c1.84-4.98,6.68-5.03,6.77-5.03c0,0,0,0,0,0l0.3,0l0.14,0.27c1.24,2.38,3.08,3.74,5.04,3.74c1.97,0,3.81-1.36,5.04-3.74l0.14-0.27
			l0.3,0c-0.05-0.03,4.91-0.01,6.77,5.03c0.54,1.45,0.78,2.62,1.08,4.09c0.11,0.54,0.23,1.11,0.38,1.76
			c0.2,0.88,0.47,1.62,0.71,2.28c0.3,0.82,0.54,1.47,0.49,2.04c-0.08,0.88-2.53,2.43-3.02,2.73c-1.84,1.14-2.29,0.96-2.47,0.89
			c-0.72-0.28-1.27-2.52-1.68-5.12c-0.14,0.58-0.3,1.12-0.49,1.63c-0.5,1.35-0.53,2.82-0.08,4.14c1.08,3.15,2.89,9.84,2.89,19.18
			C109.87-97.78,104.81-96.71,99.81-96.71z M91.57-128.65l1,0.02c0.11,2,0.43,3.73,0.95,5.12c0.58,1.57,0.61,3.27,0.08,4.81
			c-1.06,3.1-2.84,9.66-2.84,18.86c0,0.74,3.11,2.13,9.06,2.13s9.06-1.39,9.06-2.13c0-9.2-1.78-15.76-2.84-18.86
			c-0.53-1.53-0.5-3.24,0.08-4.81c0.52-1.39,0.84-3.11,0.95-5.12l1-0.02c0.36,3.42,1.03,7.37,1.53,8.03c0.8-0.13,3.87-2.2,4.14-2.82
			c0.02-0.28-0.2-0.87-0.44-1.54c-0.24-0.65-0.53-1.46-0.74-2.4c-0.15-0.65-0.27-1.23-0.38-1.78c-0.29-1.43-0.53-2.57-1.04-3.94
			c-1.38-3.72-4.56-4.28-5.54-4.36c-1.42,2.54-3.51,3.99-5.78,3.99c-2.27,0-4.36-1.45-5.78-3.99c-0.98,0.08-4.17,0.64-5.54,4.36
			c-0.51,1.38-0.75,2.52-1.04,3.96c-0.11,0.54-0.23,1.12-0.38,1.76c-0.21,0.94-0.51,1.75-0.74,2.4c-0.25,0.68-0.46,1.26-0.43,1.61
			c0.26,0.55,3.33,2.62,4.13,2.75C90.53-121.28,91.21-125.23,91.57-128.65z"/>
	</g>
</g>
<g>
	<g id="XMLID_00000132045735658467439380000006416628510804338590_">
		<g>
			<g>
				<path class="st12" d="M178.03-102.36c0.1,0.26,0.21,0.52,0.31,0.78c0,1.52-5.33,1.96-6.51,1.96c0,0-0.27-0.29-0.62-1.2
					l-0.05,0.02c-1.17-0.46-2.35,0.04-3.53,0.23c0,0.52-0.43,0.95-0.97,0.95h-2.33H162c-0.54,0-0.98-0.43-0.98-0.95
					c-1.18-0.19-2.36-0.69-3.53-0.23l-0.05-0.02c-0.36,0.91-0.62,1.2-0.62,1.2c-1.18,0-6.51-0.44-6.51-1.96
					c0.1-0.26,0.21-0.52,0.31-0.78c-2.18-0.56-3.62-1.25-3.62-2c4.98-12.38,5.83-20.39,7.35-24.72h19.95
					c1.52,4.33,2.37,12.34,7.35,24.72C181.65-103.61,180.21-102.92,178.03-102.36z"/>
			</g>
			<g>
				<rect x="154.35" y="-131.16" class="st13" width="19.95" height="2.08"/>
			</g>
		</g>
		<g>
			<g>
				<path class="st5" d="M161.03-100.07c-0.03,0-0.05,0-0.08-0.01c-0.3-0.05-0.6-0.11-0.89-0.18c-0.84-0.19-1.63-0.37-2.37-0.08
					c-0.26,0.1-0.55-0.03-0.65-0.28c-0.1-0.26,0.03-0.55,0.28-0.65c1.03-0.4,2.01-0.18,2.96,0.03c0.28,0.06,0.56,0.13,0.83,0.17
					c0.27,0.04,0.46,0.3,0.41,0.57C161.48-100.24,161.27-100.07,161.03-100.07z"/>
			</g>
			<g>
				<path class="st5" d="M150.63-101.86c-0.04,0-0.08,0-0.12-0.02c-2.73-0.7-4-1.49-4-2.48c0-0.06,0.01-0.13,0.04-0.19
					c3.32-8.26,4.79-14.54,5.87-19.13c0.54-2.3,0.96-4.11,1.47-5.57c0.09-0.26,0.37-0.4,0.64-0.31c0.26,0.09,0.4,0.38,0.31,0.64
					c-0.49,1.4-0.91,3.2-1.44,5.46c-1.08,4.6-2.55,10.88-5.86,19.15c0.1,0.24,0.8,0.83,3.23,1.46c0.27,0.07,0.43,0.34,0.36,0.61
					C151.05-102.01,150.85-101.86,150.63-101.86z"/>
			</g>
			<g>
				<path class="st5" d="M156.82-99.12c-0.07,0-7.01-0.14-7.01-2.46c0-0.06,0.01-0.12,0.03-0.18l0.31-0.78
					c3.54-9.03,4.79-16.19,5.46-20.04l0.11-0.6c0.05-0.27,0.31-0.46,0.58-0.41c0.27,0.05,0.45,0.31,0.41,0.58l-0.1,0.6
					c-0.68,3.88-1.93,11.1-5.51,20.23l-0.27,0.67c0.21,0.69,3.58,1.34,5.74,1.39c0.09-0.16,0.24-0.44,0.42-0.88
					c0.38-0.94,0.92-2.71,1.34-5.82c0.04-0.27,0.29-0.47,0.56-0.43c0.27,0.04,0.47,0.29,0.43,0.56c-0.43,3.22-1,5.07-1.4,6.06
					c-0.37,0.94-0.66,1.29-0.71,1.35C157.1-99.18,156.97-99.12,156.82-99.12z"/>
			</g>
			<g>
				<path class="st5" d="M174.3-128.58h-19.95c-0.28,0-0.5-0.22-0.5-0.5v-2.08c0-0.28,0.22-0.5,0.5-0.5h19.95
					c0.28,0,0.5,0.22,0.5,0.5v2.08C174.8-128.8,174.58-128.58,174.3-128.58z M154.85-129.58h18.95v-1.08h-18.95V-129.58z"/>
			</g>
			<g>
				<path class="st5" d="M164.34-99.12h-2.33c-0.82,0-1.48-0.65-1.48-1.45c0.01-0.14,0.96-8.51,0.87-17.7c0-0.28,0.22-0.5,0.5-0.5
					c0,0,0,0,0,0c0.27,0,0.5,0.22,0.5,0.5c0.09,9.25-0.86,17.68-0.87,17.76c0,0.19,0.22,0.39,0.48,0.39h2.33
					c0.28,0,0.5,0.22,0.5,0.5S164.61-99.12,164.34-99.12z"/>
			</g>
			<g>
				<path class="st5" d="M167.63-100.07c-0.24,0-0.45-0.17-0.49-0.42c-0.04-0.27,0.14-0.53,0.41-0.57c0.28-0.04,0.56-0.11,0.83-0.17
					c0.95-0.21,1.93-0.44,2.96-0.03c0.26,0.1,0.38,0.39,0.28,0.65c-0.1,0.26-0.39,0.38-0.65,0.28c-0.74-0.29-1.54-0.11-2.37,0.08
					c-0.3,0.07-0.6,0.13-0.89,0.18C167.69-100.07,167.66-100.07,167.63-100.07z"/>
			</g>
			<g>
				<path class="st5" d="M178.03-101.86c-0.22,0-0.43-0.15-0.48-0.38c-0.07-0.27,0.09-0.54,0.36-0.61c2.43-0.62,3.12-1.21,3.23-1.46
					c-3.31-8.27-4.79-14.55-5.86-19.15c-0.53-2.27-0.95-4.06-1.44-5.46c-0.09-0.26,0.05-0.55,0.31-0.64
					c0.27-0.09,0.55,0.05,0.64,0.31c0.51,1.46,0.94,3.27,1.47,5.57c1.07,4.59,2.55,10.87,5.87,19.13c0.02,0.06,0.04,0.12,0.04,0.19
					c0,0.99-1.27,1.78-4,2.48C178.12-101.86,178.08-101.86,178.03-101.86z"/>
			</g>
			<g>
				<path class="st5" d="M171.84-99.12c-0.14,0-0.27-0.06-0.37-0.16c-0.06-0.06-0.36-0.41-0.72-1.36c-0.4-0.98-0.97-2.84-1.4-6.05
					c-0.04-0.27,0.16-0.53,0.43-0.56c0.27-0.04,0.53,0.16,0.56,0.43c0.41,3.11,0.96,4.88,1.34,5.82c0.17,0.45,0.32,0.73,0.42,0.89
					c2.16-0.05,5.53-0.7,5.74-1.39l-0.27-0.67c-3.61-9.23-4.9-16.75-5.53-20.36l-0.08-0.47c-0.05-0.27,0.13-0.53,0.41-0.58
					c0.27-0.05,0.53,0.13,0.58,0.41l0.08,0.47c0.62,3.58,1.9,11.03,5.47,20.17l0.31,0.78c0.02,0.06,0.03,0.12,0.03,0.18
					C178.85-99.26,171.91-99.12,171.84-99.12z"/>
			</g>
			<g>
				<path class="st5" d="M166.67-99.12h-2.33c-0.28,0-0.5-0.22-0.5-0.5s0.22-0.5,0.5-0.5h2.33c0.26,0,0.47-0.2,0.47-0.45
					c-0.01-0.03-0.95-8.45-0.87-17.7c0-0.28,0.23-0.5,0.5-0.5c0,0,0,0,0,0c0.28,0,0.5,0.23,0.5,0.5
					c-0.08,9.19,0.86,17.56,0.87,17.64C168.14-99.77,167.48-99.12,166.67-99.12z"/>
			</g>
		</g>
	</g>
</g>
<g>
	<g>
		<g>
			<path class="st14" d="M280.6-126.3c-2.78,1.3-4.14,1.05-4.14,1.05s-1.37,0.25-4.14-1.05c-2.78-1.3-14.25-3.55-22.23,0.53v3.8
				c0,0,1.04,0.21,1.23,1.15c0.19,0.94,0.7,11.71,10.33,11.71c9.63,0,13.25-10.03,13.25-11.67s1.57-1.7,1.57-1.7s1.57,0.06,1.57,1.7
				s3.63,11.67,13.25,11.67s10.14-10.76,10.33-11.71c0.19-0.94,1.23-1.15,1.23-1.15v-3.8C294.84-129.85,283.37-127.61,280.6-126.3z"
				/>
		</g>
		<g>
			<path class="st5" d="M291.28-108.61c-9.96,0-13.75-10.36-13.75-12.17c0-1.09-0.91-1.19-1.09-1.2c-0.14,0.01-1.04,0.11-1.04,1.2
				c0,1.81-3.79,12.17-13.75,12.17c-4.25,0-9.56-2.04-10.77-11.75c-0.02-0.17-0.04-0.29-0.05-0.36c-0.12-0.6-0.81-0.75-0.84-0.76
				c-0.23-0.05-0.4-0.25-0.4-0.49v-3.8c0-0.19,0.11-0.36,0.27-0.45c8.01-4.09,19.47-2.05,22.67-0.54c2.55,1.2,3.83,1.01,3.85,1.01
				c0.06-0.01,0.12-0.01,0.18,0c0,0,1.29,0.19,3.84-1.01c3.21-1.51,14.66-3.55,22.67,0.54c0.17,0.09,0.27,0.26,0.27,0.45v3.8
				c0,0.24-0.17,0.44-0.4,0.49c-0.03,0.01-0.72,0.16-0.83,0.76c-0.01,0.07-0.03,0.19-0.05,0.37
				C300.84-110.65,295.52-108.61,291.28-108.61z M276.44-122.98c0.75,0.03,2.08,0.52,2.08,2.2c0,1.66,3.52,11.17,12.75,11.17
				c3.84,0,8.66-1.89,9.78-10.87c0.03-0.21,0.04-0.36,0.06-0.44c0.17-0.83,0.79-1.23,1.22-1.41v-3.13
				c-7.59-3.7-18.57-1.77-21.52-0.39c-2.54,1.19-3.97,1.15-4.36,1.1c-0.38,0.05-1.81,0.09-4.36-1.1
				c-2.95-1.38-13.93-3.31-21.52,0.39v3.13c0.42,0.18,1.05,0.58,1.22,1.41c0.02,0.08,0.04,0.23,0.06,0.44
				c1.12,8.98,5.93,10.87,9.78,10.87c9.24,0,12.75-9.51,12.75-11.17C274.39-122.46,275.73-122.95,276.44-122.98z"/>
		</g>
	</g>
	<g>
		<g>
			<path class="st5" d="M291.28-110.91c-8.45,0-11.39-8.88-11.45-9.89c0-1.28,0.37-3.32,1.54-3.87c1.4-0.66,5.63-1.63,10.26-1.63
				c3.19,0,6.09,0.46,8.52,1.33c0.54,0.19,0.88,0.72,0.88,1.3l0,0c0,0.36-0.14,0.7-0.39,0.96c-0.37,0.39-0.67,0.89-0.8,1.54
				c-0.02,0.1-0.05,0.28-0.08,0.53C298.96-114.19,296.1-110.91,291.28-110.91z M261.63-110.91c-4.83,0-7.68-3.27-8.49-9.73
				c-0.03-0.25-0.06-0.43-0.08-0.53c-0.13-0.65-0.43-1.16-0.8-1.54c-0.25-0.26-0.39-0.6-0.39-0.96l0,0c0-0.57,0.35-1.1,0.88-1.3
				c2.42-0.88,5.33-1.33,8.52-1.33c4.63,0,8.86,0.97,10.26,1.63c1.18,0.55,1.54,2.59,1.54,3.89
				C273.02-119.8,270.08-110.91,261.63-110.91z"/>
		</g>
	</g>
</g>
<g>
	<g id="XMLID_00000168817379392342006110000004736129124487480489_">
		<g>
			<g>
				<path class="st15" d="M313.11-95.58h-0.05h-5.74v-18.83c0-3.16,0.87-6.3,2.7-8.89c3.54-5.03,7.79-4.44,7.79-4.44l-2.8,5.06
					l2.8,2.8l-1.01,3.82l7.95,6.16c0.01,0.01,0.01,0.02,0.01,0.02s0,0,0.01,0l7.96-6.18l-1.01-3.82l2.8-2.8l-2.8-5.05v-0.01
					c0,0,0,0,0.01,0c0.27-0.03,4.36-0.42,7.78,4.44c1.83,2.59,2.7,5.73,2.7,8.89v18.83h-5.74l-0.05-20.45l-0.08,11.06l0.13,14.87
					h-11l-0.71-2.65l-0.7,2.65h-11L313.11-95.58z"/>
			</g>
			<g>
				<path class="st16" d="M331.72-127.73l2.8,5.05l-2.8,2.8l1.01,3.82l-7.96,6.18c0.07-0.23,1.27-3.73,2.69-7.59
					c1.57-4.3,3.4-9.06,4.25-10.25C331.71-127.73,331.72-127.73,331.72-127.73z"/>
			</g>
			<g>
				<path class="st17" d="M331.29-129.71l0.44,1.97c-0.01,0-0.01,0-0.01,0v0.01c0,0-0.01,0-0.01,0.01l-4.49,3.88l-0.88-1.54
					l-1.57-2.75c1.84,0,6.24-2.84,6.24-2.84L331.29-129.71z"/>
			</g>
			<g>
				<path class="st18" d="M327.22-123.84l4.49-3.88c-0.85,1.19-2.68,5.95-4.25,10.25l-1.75-6.37c0.09-0.08,0.62-0.55,0.62-1.54h0.01
					L327.22-123.84z"/>
			</g>
			<g>
				<path class="st18" d="M331-130.97h0.01c0,0-4.4,2.84-6.24,2.84s-6.24-2.84-6.24-2.84s0-0.75,6.24-0.75
					C331-131.72,331-130.97,331-130.97z"/>
			</g>
			<g>
				<path class="st19" d="M325.71-123.84l1.75,6.37c-1.42,3.86-2.62,7.36-2.69,7.59c-0.01,0-0.01,0-0.01,0s0-0.01-0.01-0.02
					c-0.1-0.29-1.29-3.76-2.68-7.57l1.76-6.37c0,0,0.65,0,0.94,0c0.26,0,0.83,0,0.93,0C325.7-123.84,325.7-123.84,325.71-123.84z"/>
			</g>
			<g>
				<path class="st19" d="M324.77-128.13l1.57,2.75h-0.01c0,0.99-0.53,1.46-0.62,1.54c-0.01,0-0.01,0-0.01,0c-0.1,0-0.67,0-0.93,0
					c-0.29,0-0.94,0-0.94,0s-0.63-0.46-0.63-1.54L324.77-128.13z"/>
			</g>
			<g>
				<path class="st17" d="M324.77-128.13l-1.57,2.75l-0.88,1.54l-4.51-3.9l0.44-1.97l0.28-1.26
					C318.53-130.97,322.93-128.13,324.77-128.13z"/>
			</g>
			<g>
				<path class="st16" d="M324.75-109.9l-7.95-6.16l1.01-3.82l-2.8-2.8l2.8-5.06c0.84,1.16,2.68,5.95,4.26,10.27
					C323.46-113.66,324.65-110.19,324.75-109.9z"/>
			</g>
			<g>
				<path class="st18" d="M323.83-123.84l-1.76,6.37c-1.58-4.32-3.42-9.11-4.26-10.27l4.51,3.9l0.88-1.54
					C323.2-124.3,323.83-123.84,323.83-123.84z"/>
			</g>
		</g>
		<g>
			<g>
				<path class="st5" d="M324.45-109.51l-7.95-6.16c-0.16-0.12-0.23-0.33-0.18-0.52l0.94-3.54l-2.6-2.6
					c-0.16-0.16-0.19-0.4-0.08-0.6l2.8-5.06l0.88,0.48l-2.62,4.73l2.53,2.53c0.13,0.13,0.18,0.31,0.13,0.48l-0.92,3.5l7.69,5.96
					L324.45-109.51z"/>
			</g>
			<g>
				<path class="st5" d="M325.08-109.49l-0.61-0.79l7.7-5.98l-0.92-3.5c-0.05-0.17,0-0.36,0.13-0.48l2.53-2.53l-2.62-4.72l0.88-0.48
					l2.8,5.05c0.11,0.2,0.07,0.44-0.08,0.6l-2.6,2.6l0.94,3.54c0.05,0.19-0.02,0.4-0.18,0.52L325.08-109.49z"/>
			</g>
			<g>
				<path class="st5" d="M322.32-123.34c-0.12,0-0.24-0.04-0.33-0.12l-4.51-3.9c-0.14-0.12-0.2-0.31-0.16-0.49l0.72-3.23
					c0.04-0.16,0.15-0.29,0.3-0.35c0.15-0.06,0.32-0.04,0.46,0.04c1.19,0.77,4.58,2.76,5.97,2.76c0.18,0,0.34,0.09,0.43,0.25
					c0.09,0.15,0.09,0.34,0,0.5l-2.45,4.29c-0.07,0.13-0.2,0.22-0.35,0.25C322.38-123.35,322.35-123.34,322.32-123.34z
					 M318.37-127.93l3.83,3.31l1.78-3.12c-1.64-0.39-3.98-1.74-5.11-2.43L318.37-127.93z"/>
			</g>
			<g>
				<path class="st5" d="M327.22-123.34c-0.03,0-0.06,0-0.08-0.01c-0.15-0.03-0.28-0.12-0.35-0.25l-2.45-4.29
					c-0.09-0.16-0.09-0.34,0-0.5c0.09-0.15,0.25-0.25,0.43-0.25c1.39,0,4.78-1.99,5.97-2.76c0.14-0.09,0.31-0.1,0.46-0.04
					c0.15,0.06,0.26,0.19,0.3,0.35l0.72,3.23c0.04,0.17-0.02,0.35-0.14,0.46c-0.01,0.01-0.03,0.03-0.04,0.04l-4.49,3.88
					C327.46-123.39,327.34-123.34,327.22-123.34z M325.57-127.74l1.78,3.12l3.82-3.3l-0.5-2.25
					C329.56-129.49,327.21-128.14,325.57-127.74z"/>
			</g>
			<g>
				<path class="st5" d="M331-130.47c-0.18,0-0.33-0.09-0.42-0.23c-0.19-0.11-1.22-0.52-5.81-0.52c-4.6,0-5.62,0.41-5.82,0.52
					c-0.09,0.14-0.25,0.23-0.42,0.23c-0.28,0-0.5-0.22-0.5-0.5c0-0.41,0-1.25,6.74-1.25c6.73,0,6.73,0.84,6.73,1.25
					C331.5-130.7,331.28-130.47,331-130.47z M319.03-130.97L319.03-130.97L319.03-130.97z M330.5-130.97L330.5-130.97L330.5-130.97z
					 M319.03-130.97L319.03-130.97L319.03-130.97z M330.5-130.97L330.5-130.97L330.5-130.97z M319.03-130.97L319.03-130.97
					L319.03-130.97z M330.5-130.97L330.5-130.97L330.5-130.97z"/>
			</g>
			<g>
				<path class="st5" d="M327.46-116.97c-0.22,0-0.42-0.15-0.48-0.37l-1.75-6.37c-0.07-0.27,0.08-0.54,0.35-0.62
					c0.27-0.07,0.54,0.08,0.62,0.35l1.75,6.37c0.07,0.27-0.08,0.54-0.35,0.62C327.55-116.98,327.51-116.97,327.46-116.97z"/>
			</g>
			<g>
				<path class="st5" d="M322.07-116.97c-0.04,0-0.09-0.01-0.13-0.02c-0.27-0.07-0.42-0.35-0.35-0.62l1.76-6.37
					c0.06-0.22,0.26-0.37,0.48-0.37h1.87c0.28,0,0.5,0.22,0.5,0.5s-0.22,0.5-0.5,0.5h-1.49l-1.66,6
					C322.49-117.12,322.29-116.97,322.07-116.97z"/>
			</g>
			<g>
				<path class="st5" d="M323.83-123.34c-0.1,0-0.2-0.03-0.29-0.1c-0.31-0.23-0.83-0.89-0.83-1.94c0-0.28,0.22-0.5,0.5-0.5
					s0.5,0.22,0.5,0.5c0,0.79,0.41,1.13,0.43,1.14c0.21,0.17,0.26,0.48,0.09,0.7C324.13-123.41,323.98-123.34,323.83-123.34z"/>
			</g>
			<g>
				<path class="st5" d="M325.71-123.34c-0.28,0-0.5-0.22-0.5-0.5c0-0.17,0.08-0.32,0.21-0.41c0.15-0.15,0.41-0.5,0.41-1.13
					c0-0.28,0.22-0.5,0.5-0.5s0.5,0.22,0.5,0.5c0,0.77-0.29,1.47-0.79,1.91C325.96-123.39,325.84-123.34,325.71-123.34z"/>
			</g>
			<g>
				<path class="st5" d="M336.47-89.6h-11c-0.23,0-0.42-0.15-0.48-0.37l-0.22-0.83l-0.22,0.83c-0.06,0.22-0.26,0.37-0.48,0.37h-11
					c-0.13,0-0.26-0.05-0.36-0.15s-0.15-0.22-0.14-0.36l0.05-4.98h-5.29c-0.28,0-0.5-0.22-0.5-0.5v-18.83
					c0-3.42,0.96-6.59,2.79-9.18c3.67-5.22,8.08-4.67,8.27-4.65c0.13,0.02,0.26,0.09,0.34,0.2c0.71,0.98,2.13,4.38,4.33,10.39
					c0.9,2.47,1.71,4.78,2.22,6.24c0.49-1.42,1.32-3.77,2.23-6.24c2.18-5.96,3.59-9.35,4.31-10.37l0,0
					c0.09-0.14,0.24-0.23,0.42-0.23c0.43-0.05,4.68-0.35,8.2,4.65c1.83,2.58,2.79,5.76,2.79,9.18v18.83c0,0.28-0.22,0.5-0.5,0.5
					h-5.28l0.04,4.98c0,0.13-0.05,0.26-0.14,0.36C336.73-89.66,336.61-89.6,336.47-89.6z M325.86-90.6h10.11l-0.13-14.37l0.08-11.07
					c0-0.27,0.23-0.5,0.5-0.5h0c0.28,0,0.5,0.22,0.5,0.5l0.05,19.95h4.74v-18.33c0-3.21-0.9-6.19-2.61-8.6
					c-2.87-4.08-6.17-4.28-7.1-4.25c-0.51,0.83-1.63,3.28-4.07,9.96c-1.46,3.97-2.63,7.38-2.68,7.56c-0.12,0.39-0.73,0.43-0.92,0.1
					c-0.02-0.03-0.04-0.07-0.05-0.1c-0.31-0.9-1.41-4.07-2.68-7.56c-2.01-5.49-3.38-8.84-4.07-9.96c-0.87-0.03-4.19,0.12-7.1,4.25
					c-1.71,2.42-2.61,5.39-2.61,8.6v18.33h4.79l0.08-8.89l-0.08-11.05l1-0.01l0.08,11.06l-0.13,14.37h10.11l0.6-2.28
					c0.06-0.22,0.26-0.37,0.48-0.37h0c0.23,0,0.42,0.15,0.48,0.37L325.86-90.6z"/>
			</g>
			<g>
				<path class="st5" d="M324.77-95.43c-0.28,0-0.5-0.22-0.5-0.5v-11.26c0-0.28,0.22-0.5,0.5-0.5s0.5,0.22,0.5,0.5v11.26
					C325.27-95.66,325.05-95.43,324.77-95.43z"/>
			</g>
		</g>
	</g>
</g>
<g>
	<g id="XMLID_00000095327833124471438630000000969087160187293332_">
		<g>
			<g>
				<path class="st20" d="M460.48-126.67c1.26,3.93,7.56,7.42,7.56,20.74c0,1.68-7.28,3.05-13.39,3.05
					c-6.12,0-13.39-1.37-13.39-3.05c0-13.32,6.3-16.81,7.56-20.74c0.41-1.28-0.01-3.17-0.83-4.23c-0.93-1.22-2.11-3.47-2.32-7.18
					c0,0,0-0.83,1.06-1.45c0.66-0.4,1.72-0.71,3.43-0.71c2.77,0,4.49,1,4.49,1s1.71-1,4.49-1c1.72,0,2.78,0.32,3.43,0.71
					c1.05,0.63,1.05,1.45,1.05,1.45c-0.2,3.71-1.38,5.96-2.32,7.18C460.48-129.84,460.07-127.95,460.48-126.67z"/>
			</g>
			<g>
				<path class="st21" d="M460.77-143.69c3.17,0,1.81,4.15,1.81,4.15l-0.01,0.01c-0.65-0.39-1.71-0.71-3.43-0.71
					c-2.78,0-4.49,1-4.49,1s-1.72-1-4.49-1c-1.71,0-2.77,0.31-3.43,0.71l-0.01-0.01c0,0-1.37-4.15,1.81-4.15
					c0,0,3.14-0.07,3.95-1.48c0.63-1.12,0.56-2.71,0.43-3.72h1.74h1.74c-0.14,1.01-0.21,2.6,0.43,3.72
					C457.62-143.76,460.77-143.69,460.77-143.69z"/>
			</g>
		</g>
		<g>
			<g>
				<path class="st5" d="M454.65-102.38c-4.84,0-13.89-1.04-13.89-3.55c0-9.66,3.23-14.2,5.59-17.51c0.89-1.25,1.66-2.33,1.99-3.38
					c0.34-1.07,0-2.8-0.75-3.77c-0.99-1.29-2.21-3.64-2.42-7.46c0-0.44,0.27-1.31,1.31-1.91c0.85-0.51,2.09-0.78,3.68-0.78
					c2.29,0,3.89,0.65,4.49,0.94c0.59-0.29,2.19-0.94,4.49-0.94c1.58,0,2.82,0.26,3.69,0.78l0,0c1.02,0.61,1.29,1.47,1.29,1.88
					c-0.21,3.86-1.43,6.2-2.42,7.49c-0.75,0.97-1.08,2.69-0.74,3.77c0.34,1.05,1.11,2.13,1.99,3.38c2.36,3.32,5.59,7.86,5.59,17.51
					C468.54-103.42,459.5-102.38,454.65-102.38z M450.16-139.74c-1.41,0-2.47,0.21-3.17,0.64c-0.78,0.46-0.82,1.01-0.82,1.03
					c0.2,3.53,1.32,5.68,2.22,6.86c0.95,1.24,1.35,3.29,0.91,4.69c-0.39,1.2-1.2,2.34-2.13,3.66c-2.28,3.21-5.4,7.59-5.4,16.93
					c0,0.96,6.02,2.55,12.89,2.55c6.87,0,12.89-1.59,12.89-2.55c0-9.34-3.12-13.73-5.41-16.93c-0.94-1.32-1.75-2.45-2.13-3.66
					c-0.45-1.4-0.05-3.46,0.9-4.69c0.9-1.17,2.02-3.32,2.22-6.9c0,0,0,0,0,0c0,0-0.05-0.54-0.81-1l0,0
					c-0.7-0.42-1.79-0.64-3.17-0.64c-2.59,0-4.22,0.92-4.24,0.93c-0.15,0.09-0.35,0.09-0.5,0
					C454.39-138.81,452.75-139.74,450.16-139.74z"/>
			</g>
			<g>
				<path class="st5" d="M446.25-139.38c-0.03-0.1-0.81-2.49,0.19-3.87c0.45-0.62,1.15-0.94,2.09-0.94
					c0.73-0.02,2.97-0.28,3.52-1.23c0.42-0.75,0.55-1.96,0.37-3.41c-0.02-0.14,0.03-0.29,0.12-0.39c0.09-0.11,0.23-0.17,0.38-0.17
					h3.48c0.14,0,0.28,0.06,0.38,0.17c0.09,0.11,0.14,0.25,0.12,0.4c-0.11,0.83-0.22,2.38,0.37,3.4c0.54,0.95,2.78,1.21,3.53,1.23
					l0,0c0.92,0,1.62,0.31,2.07,0.93c1,1.38,0.23,3.77,0.2,3.87l-0.95-0.31c0.18-0.56,0.52-2.17-0.06-2.98
					c-0.25-0.35-0.67-0.52-1.27-0.52c-0.36-0.01-3.47-0.12-4.38-1.73c-0.59-1.03-0.65-2.37-0.55-3.47h-2.37
					c0.09,1.1,0.03,2.44-0.55,3.47c-0.93,1.61-4.02,1.73-4.38,1.73c-0.62,0-1.04,0.17-1.29,0.52c-0.58,0.8-0.24,2.42-0.06,2.97
					L446.25-139.38z"/>
			</g>
		</g>
	</g>
</g>
</svg>
